<svg viewBox="-960 -459.5 1920 919" width="1920" height="919" style="background-color: rgb(255, 255, 255);" xmlns="http://www.w3.org/2000/svg"><path d="M-227.2814171504709,-13.97688108057749L-269.25871616027723,-23.497345004855998M-269.25871616027723,-225.3921451128332L-269.25871616027723,-23.497345004855998M-269.25871616027723,-23.497345004855998L-373.0382529688237,62.73007603191496M-227.28141715047093,-215.87168118855465L-227.2814171504709,-13.97688108057749M-227.2814171504709,-13.97688108057749L-331.06095395901735,72.25053995619349" style="fill:none;stroke:rgb(0,0,0);stroke-width:1;stroke-linecap:round"></path><path d="M-227.28141715047096,-13.976881080577476L-269.25871616027723,-23.49734500485599L-269.25871616027723,-225.39214511283316zM-373.0382529688237,62.73007603191498L-269.25871616027723,-23.49734500485599L-227.28141715047096,-13.976881080577476zM-227.28141715047096,-215.87168118855465L-227.28141715047096,-13.976881080577476L-269.25871616027723,-225.39214511283316z" style="fill:rgb(238,238,238); fill-opacity: 0.4"></path><path d="M-91.87089421662445,8.327047037001169L-160.3329197409099,-7.200160752969545M-160.33291974090992,-172.2476577593403L-160.3329197409099,-7.200160752969545M-160.3329197409099,-7.200160752969545L-245.17191897006506,63.29011441916063M-227.28141715047093,-215.87168118855465L-269.25871616027723,-225.3921451128332M-269.25871616027723,-225.3921451128332L-373.0382529688237,-139.16472407606219M-277.4975205500046,1.3262673576750152L-319.4748195598109,-8.194196566603498M-319.4748195598109,-54.7978171695394L-319.4748195598109,-8.194196566603498M-319.4748195598109,-8.194196566603498L-343.43037540962604,11.70978319621413M-110.24011317041162,30.360850686967225L-178.70213869469708,14.833642896996519M-178.70213869469708,-31.769977705939393L-178.70213869469708,14.833642896996519M-178.70213869469708,14.833642896996519L-202.65769454451225,34.73762265981414" style="fill:none;stroke:rgb(0,0,0);stroke-width:1;stroke-linecap:round"></path><path d="M-331.0609539590174,72.25053995619349L-227.28141715047096,-13.976881080577476L-227.28141715047096,-215.87168118855465z" style="fill:rgb(238,238,238); fill-opacity: 0.4"></path><path d="M-91.87089421662446,-156.7204499693696L-91.87089421662445,8.327047037001169M-91.87089421662445,8.327047037001169L-176.7098934457796,78.81732220913135" style="fill:none;stroke:rgb(0,0,0);stroke-width:1;stroke-linecap:round"></path><path d="M-277.4975205500046,1.326267357675009L-319.4748195598109,-8.194196566603503L-319.47481955981095,-54.7978171695394z" style="fill:rgb(153,221,255); fill-opacity: 0.4"></path><path d="M-227.28141715047093,-215.87168118855465L-331.06095395901735,-129.6442601517837" style="fill:none;stroke:rgb(0,0,0);stroke-width:1;stroke-linecap:round"></path><path d="M-91.87089421662442,8.327047037001169L-160.3329197409099,-7.200160752969541L-160.3329197409099,-172.24765775934029z" style="fill:rgb(238,238,238); fill-opacity: 0.4"></path><path d="M-277.49752800128454,-45.2773544984321L-277.49752800128454,1.3262679563652988M-277.49752800128454,1.3262679563652988L-301.4530846840194,21.23024841123189M-277.49752800128454,1.3262679563652988L-211.1759548851196,-5.603328446085936M-277.4975205500046,-45.27735324526089L-277.4975205500046,1.3262673576750152M-277.4975205500046,1.3262673576750152L-301.45307639981974,21.23024712049264" style="fill:none;stroke:rgb(0,0,0);stroke-width:1;stroke-linecap:round"></path><path d="M-343.4303754096261,11.70978319621412L-319.4748195598109,-8.194196566603503L-277.4975205500046,1.326267357675009z" style="fill:rgb(153,221,255); fill-opacity: 0.4"></path><path d="M-277.4975205500046,-45.27735324526089L-319.4748195598109,-54.7978171695394M-319.4748195598109,-54.7978171695394L-343.43037540962604,-34.89383740672178" style="fill:none;stroke:rgb(0,0,0);stroke-width:1;stroke-linecap:round"></path><path d="M-269.25871616027723,-225.39214511283316L-269.25871616027723,-23.49734500485599L-373.0382529688237,-139.16472407606219z" style="fill:rgb(238,238,238); fill-opacity: 0.4"></path><path d="M-277.4975205500046,-45.27735324526089L-277.4975205500046,1.326267357675009L-319.47481955981095,-54.7978171695394zM-110.2401131704116,30.36085068696721L-178.70213869469708,14.833642896996512L-178.70213869469708,-31.769977705939393zM-319.47481955981095,-54.7978171695394L-319.4748195598109,-8.194196566603503L-343.4303754096261,-34.89383740672178z" style="fill:rgb(153,221,255); fill-opacity: 0.4"></path><path d="M-110.24011317041163,-16.242769915968683L-178.70213869469708,-31.769977705939393M-178.70213869469708,-31.769977705939393L-202.65769454451228,-11.865997943121764" style="fill:none;stroke:rgb(0,0,0);stroke-width:1;stroke-linecap:round"></path><path d="M-331.0609539590174,72.25053995619349L-373.0382529688237,62.73007603191498L-227.28141715047096,-13.976881080577476z" style="fill:rgb(238,238,238); fill-opacity: 0.4"></path><path d="M-202.65769454451225,34.73762265981415L-178.70213869469708,14.833642896996512L-110.2401131704116,30.36085068696721zM-319.4748195598109,-8.194196566603503L-343.4303754096261,11.70978319621412L-343.4303754096261,-34.89383740672178zM-178.70213869469708,-31.769977705939393L-178.70213869469708,14.833642896996512L-202.65769454451225,-11.865997943121766zM-301.45307639981974,21.23024712049263L-343.4303754096261,11.70978319621412L-277.4975205500046,1.326267357675009z" style="fill:rgb(153,221,255); fill-opacity: 0.4"></path><path d="M-277.49752092892874,-45.277353331201006L-277.49752092892874,1.326267271734895L-301.4530767787439,21.23024703455252z" style="fill:rgb(255,187,187); fill-opacity: 0.4"></path><path d="M-301.45307639981974,21.23024712049263L-277.4975205500046,1.326267357675009L-277.4975205500046,-45.27735324526089z" style="fill:rgb(153,221,255); fill-opacity: 0.4"></path><path d="M-245.17191897006506,63.290114419160645L-160.3329197409099,-7.200160752969541L-91.87089421662442,8.327047037001169z" style="fill:rgb(238,238,238); fill-opacity: 0.4"></path><path d="M-343.43037540962604,-34.89383740672178L-343.43037540962604,11.70978319621413M-343.43037540962604,11.70978319621413L-301.45307639981974,21.23024712049264M-277.49752800128454,-45.2773544984321L-301.4530846840194,-25.37337404356552M-277.49752800128454,-45.2773544984321L-211.1759548851196,-5.603328446085936M-277.4975205500046,-45.27735324526089L-301.45307639981974,-25.373373482443267M-110.24011317041163,-16.242769915968683L-110.24011317041162,30.360850686967225M-110.24011317041162,30.360850686967225L-134.19566902022683,50.26483044978485M-110.24011475820667,-16.242769673285306L-110.24011475820666,30.36084722592761M-110.24011475820666,30.36084722592761L-134.195670191562,50.264826642720756M-110.24011475820666,30.36084722592761L-46.33245141485212,31.870567246406054" style="fill:none;stroke:rgb(0,0,0);stroke-width:1;stroke-linecap:round"></path><path d="M-178.70213869469708,14.833642896996512L-202.65769454451225,34.73762265981415L-202.65769454451225,-11.865997943121766zM-110.24011317041162,-16.242769915968687L-110.2401131704116,30.36085068696721L-178.70213869469708,-31.769977705939393zM-301.45307639981974,-25.373373482443267L-277.4975205500046,-45.27735324526089L-319.47481955981095,-54.7978171695394z" style="fill:rgb(153,221,255); fill-opacity: 0.4"></path><path d="M-277.49752092892874,1.326267271734895L-277.49752092892874,-45.277353331201006L-211.17595467482238,-5.603329047832003z" style="fill:rgb(255,187,187); fill-opacity: 0.4"></path><path d="M-202.65769454451228,-11.865997943121764L-202.65769454451225,34.73762265981414M-202.65769454451225,34.73762265981414L-134.19566902022683,50.26483044978485" style="fill:none;stroke:rgb(0,0,0);stroke-width:1;stroke-linecap:round"></path><path d="M-269.25871616027723,-23.49734500485599L-373.0382529688237,62.73007603191498L-373.0382529688237,-139.16472407606219z" style="fill:rgb(238,238,238); fill-opacity: 0.4"></path><path d="M88.61280978036449,47.59719178644438L-17.32609627755206,23.570216323675584M-17.326096277552075,-134.18596861771005L-17.32609627755206,23.570216323675584M-17.32609627755206,23.570216323675584L-98.417158519593,90.94643885551133" style="fill:none;stroke:rgb(0,0,0);stroke-width:1;stroke-linecap:round"></path><path d="M-91.87089421662445,-156.72044996936958L-91.87089421662442,8.327047037001169L-160.3329197409099,-172.24765775934029z" style="fill:rgb(238,238,238); fill-opacity: 0.4"></path><path d="M-301.4530767787439,21.23024703455252L-277.49752092892874,1.326267271734895L-211.17595467482238,-5.603329047832003z" style="fill:rgb(255,187,187); fill-opacity: 0.4"></path><path d="M-343.4303754096261,-34.89383740672178L-301.45307639981974,-25.373373482443267L-319.47481955981095,-54.7978171695394zM-134.1956690202268,50.26483044978485L-202.65769454451225,34.73762265981415L-110.2401131704116,30.36085068696721z" style="fill:rgb(153,221,255); fill-opacity: 0.4"></path><path d="M-301.4530846840194,21.23024841123189L-301.4530846840194,-25.37337404356552M-301.4530846840194,21.23024841123189L-211.1759548851196,-5.603328446085936M-301.45307639981974,-25.373373482443267L-301.45307639981974,21.23024712049264M-91.87089421662446,-156.7204499693696L-160.33291974090992,-172.2476577593403M-160.33291974090992,-172.2476577593403L-245.17191897006512,-101.75738258721013" style="fill:none;stroke:rgb(0,0,0);stroke-width:1;stroke-linecap:round"></path><path d="M-343.4303754096261,11.70978319621412L-301.45307639981974,21.23024712049263L-301.45307639981974,-25.373373482443267z" style="fill:rgb(153,221,255); fill-opacity: 0.4"></path><path d="M-277.49752092892874,-45.277353331201006L-301.4530767787439,21.23024703455252L-301.4530767787439,-25.373373568383382z" style="fill:rgb(255,187,187); fill-opacity: 0.4"></path><path d="M-301.45307639981974,-25.373373482443267L-301.45307639981974,21.23024712049263L-277.4975205500046,-45.27735324526089zM-343.4303754096261,-34.89383740672178L-343.4303754096261,11.70978319621412L-301.45307639981974,-25.373373482443267z" style="fill:rgb(153,221,255); fill-opacity: 0.4"></path><path d="M-110.24011358572358,-16.242770010161564L-110.24011358572358,30.360850592774334L-134.19566943553878,50.26483035559198z" style="fill:rgb(255,187,187); fill-opacity: 0.4"></path><path d="M-134.1956690202268,50.26483044978485L-110.2401131704116,30.36085068696721L-110.24011317041162,-16.242769915968687z" style="fill:rgb(153,221,255); fill-opacity: 0.4"></path><path d="M-343.43037540962604,-34.89383740672178L-301.45307639981974,-25.373373482443267M-110.24011317041163,-16.242769915968683L-134.19566902022683,3.661209846848944M-110.24011475820667,-16.242769673285306L-134.195670191562,3.6612097435078397M-110.24011475820667,-16.242769673285306L-46.33245141485212,31.870567246406054" style="fill:none;stroke:rgb(0,0,0);stroke-width:1;stroke-linecap:round"></path><path d="M-134.19566902022683,3.661209846848944L-110.24011317041162,-16.242769915968687L-178.70213869469708,-31.769977705939393zM-202.65769454451225,-11.865997943121766L-134.19566902022683,3.661209846848944L-178.70213869469708,-31.769977705939393z" style="fill:rgb(153,221,255); fill-opacity: 0.4"></path><path d="M-331.0609539590174,-129.6442601517837L-227.28141715047096,-215.87168118855465L-269.25871616027723,-225.39214511283316z" style="fill:rgb(238,238,238); fill-opacity: 0.4"></path><path d="M-277.49752092892874,-45.277353331201006L-301.4530767787439,-25.373373568383382L-211.17595467482238,-5.603329047832003zM-110.24011358572358,30.360850592774334L-110.24011358572358,-16.242770010161564L-46.332452651044676,31.87056430484805z" style="fill:rgb(255,187,187); fill-opacity: 0.4"></path><path d="M-202.65769454451228,-11.865997943121764L-134.19566902022683,3.661209846848944" style="fill:none;stroke:rgb(0,0,0);stroke-width:1;stroke-linecap:round"></path><path d="M-202.65769454451225,-11.865997943121766L-202.65769454451225,34.73762265981415L-134.19566902022683,3.661209846848944z" style="fill:rgb(153,221,255); fill-opacity: 0.4"></path><path d="M-301.4530767787439,-25.373373568383382L-301.4530767787439,21.23024703455252L-211.17595467482238,-5.603329047832003zM-134.19566943553878,50.26483035559198L-110.24011358572358,30.360850592774334L-46.332452651044676,31.87056430484805z" style="fill:rgb(255,187,187); fill-opacity: 0.4"></path><path d="M-373.0382529688237,-139.16472407606219L-373.0382529688237,62.73007603191496M-373.0382529688237,62.73007603191496L-331.06095395901735,72.25053995619349" style="fill:none;stroke:rgb(0,0,0);stroke-width:1;stroke-linecap:round"></path><path d="M-202.65769454451225,34.73762265981415L-134.1956690202268,50.26483044978485L-134.19566902022683,3.661209846848944z" style="fill:rgb(153,221,255); fill-opacity: 0.4"></path><path d="M-160.3329197409099,-172.24765775934029L-160.3329197409099,-7.200160752969541L-245.17191897006506,-101.75738258721012z" style="fill:rgb(238,238,238); fill-opacity: 0.4"></path><path d="M-301.4530846840194,-25.37337404356552L-211.1759548851196,-5.603328446085936M-134.19566902022683,3.661209846848944L-134.19566902022683,50.26483044978485M-134.195670191562,50.264826642720756L-134.195670191562,3.6612097435078397M-134.195670191562,50.264826642720756L-46.33245141485212,31.870567246406054" style="fill:none;stroke:rgb(0,0,0);stroke-width:1;stroke-linecap:round"></path><path d="M-110.24011358572358,-16.242770010161564L-134.19566943553878,50.26483035559198L-134.19566943553878,3.661209752656066z" style="fill:rgb(255,187,187); fill-opacity: 0.4"></path><path d="M-134.19566902022683,3.661209846848944L-134.1956690202268,50.26483044978485L-110.24011317041162,-16.242769915968687z" style="fill:rgb(153,221,255); fill-opacity: 0.4"></path><path d="M-176.70989344577958,78.81732220913133L-91.87089421662442,8.327047037001169L-91.87089421662445,-156.72044996936958z" style="fill:rgb(238,238,238); fill-opacity: 0.4"></path><path d="M-91.87089421662446,-156.7204499693696L-176.70989344577964,-86.23017479723943" style="fill:none;stroke:rgb(0,0,0);stroke-width:1;stroke-linecap:round"></path><path d="M-110.24011358572358,-16.242770010161564L-134.19566943553878,3.661209752656066L-46.332452651044676,31.87056430484805z" style="fill:rgb(255,187,187); fill-opacity: 0.4"></path><path d="M88.61280978036447,47.59719178644436L-17.326096277552047,23.570216323675584L-17.326096277552075,-134.18596861771005z" style="fill:rgb(238,238,238); fill-opacity: 0.4"></path><path d="M-331.06095395901735,-129.6442601517837L-331.06095395901735,72.25053995619349" style="fill:none;stroke:rgb(0,0,0);stroke-width:1;stroke-linecap:round"></path><path d="M-176.70989344577958,78.81732220913133L-245.17191897006506,63.290114419160645L-91.87089421662442,8.327047037001169z" style="fill:rgb(238,238,238); fill-opacity: 0.4"></path><path d="M-134.19566943553878,3.661209752656066L-134.19566943553878,50.26483035559198L-46.332452651044676,31.87056430484805z" style="fill:rgb(255,187,187); fill-opacity: 0.4"></path><path d="M-331.0609539590174,-129.6442601517837L-331.0609539590174,72.25053995619349L-227.28141715047096,-215.87168118855465z" style="fill:rgb(238,238,238); fill-opacity: 0.4"></path><path d="M88.61280978036447,-110.15899315494127L88.61280978036449,47.59719178644438M88.61280978036449,47.59719178644438L7.521747538323553,114.9734143182801" style="fill:none;stroke:rgb(0,0,0);stroke-width:1;stroke-linecap:round"></path><path d="M-160.3329197409099,-7.200160752969541L-245.17191897006506,63.290114419160645L-245.17191897006506,-101.75738258721012z" style="fill:rgb(238,238,238); fill-opacity: 0.4"></path><path d="M91.51486407440225,-70.89087274012569L-14.424041983514302,-94.91784820289448M-14.424041983514302,-141.52146880583035L-14.424041983514302,-94.91784820289448M-14.424041983514302,-94.91784820289448L-38.379597833329484,-75.01386844007683M-134.195670191562,3.6612097435078397L-46.33245141485212,31.870567246406054" style="fill:none;stroke:rgb(0,0,0);stroke-width:1;stroke-linecap:round"></path><path d="M-98.41715851959299,90.94643885551133L-17.326096277552047,23.570216323675584L88.61280978036447,47.59719178644436zM-373.0382529688237,-139.16472407606219L-331.0609539590174,-129.6442601517837L-269.25871616027723,-225.39214511283316zM-373.0382529688237,62.73007603191498L-331.0609539590174,72.25053995619349L-331.0609539590174,-129.6442601517837z" style="fill:rgb(238,238,238); fill-opacity: 0.4"></path><path d="M-245.17191897006512,-101.75738258721013L-245.17191897006506,63.29011441916063M-245.17191897006506,63.29011441916063L-176.7098934457796,78.81732220913135M91.51486407440225,-117.49449334306159L-14.424041983514302,-141.52146880583035M-14.424041983514302,-141.52146880583035L-38.379597833329484,-121.61748904301274" style="fill:none;stroke:rgb(0,0,0);stroke-width:1;stroke-linecap:round"></path><path d="M91.51486407440227,-70.8908727401257L-14.42404198351429,-94.91784820289448L-14.42404198351429,-141.52146880583038z" style="fill:rgb(153,221,255); fill-opacity: 0.4"></path><path d="M88.61280978036447,-110.15899315494127L-17.326096277552075,-134.18596861771005M-17.326096277552075,-134.18596861771005L-98.41715851959302,-66.80974608587431" style="fill:none;stroke:rgb(0,0,0);stroke-width:1;stroke-linecap:round"></path><path d="M-176.70989344577958,-86.23017479723943L-91.87089421662445,-156.72044996936958L-160.3329197409099,-172.24765775934029z" style="fill:rgb(238,238,238); fill-opacity: 0.4"></path><path d="M-14.42404198351429,-141.52146880583038L-14.42404198351429,-94.91784820289448L-38.379597833329484,-121.61748904301277zM-38.37959783332947,-75.01386844007685L-14.42404198351429,-94.91784820289448L91.51486407440227,-70.8908727401257z" style="fill:rgb(153,221,255); fill-opacity: 0.4"></path><path d="M88.61280978036447,-110.15899315494127L88.61280978036447,47.59719178644436L-17.326096277552075,-134.18596861771005z" style="fill:rgb(238,238,238); fill-opacity: 0.4"></path><path d="M-14.42404198351429,-94.91784820289448L-38.37959783332947,-75.01386844007685L-38.379597833329484,-121.61748904301277z" style="fill:rgb(153,221,255); fill-opacity: 0.4"></path><path d="M295.31267094941063,92.57474488466806L162.88903473308417,62.5410247297625M162.88903473308415,-86.87887973893461L162.88903473308417,62.5410247297625M162.88903473308417,62.5410247297625L86.08305227367784,126.35689817972646M-38.379597833329484,-121.61748904301274L-38.379597833329484,-75.01386844007683M-38.379597833329484,-75.01386844007683L67.55930822458707,-50.98689297730806" style="fill:none;stroke:rgb(0,0,0);stroke-width:1;stroke-linecap:round"></path><path d="M-373.0382529688237,-139.16472407606219L-373.0382529688237,62.73007603191498L-331.0609539590174,-129.6442601517837zM-17.326096277552075,-134.18596861771005L-17.326096277552047,23.570216323675584L-98.41715851959302,-66.80974608587431z" style="fill:rgb(238,238,238); fill-opacity: 0.4"></path><path d="M91.51486407440227,-117.4944933430616L91.51486407440227,-70.8908727401257L-14.42404198351429,-141.52146880583038z" style="fill:rgb(153,221,255); fill-opacity: 0.4"></path><path d="M91.51485977980913,-117.49449924334107L91.51485977980913,-70.89087493668218M91.51485977980913,-70.89087493668218L67.55930202617743,-50.98689359203835M91.51485977980913,-70.89087493668218L154.29289557128965,-62.33017970389851M91.51486407440225,-117.49449334306159L91.51486407440225,-70.89087274012569M91.51486407440225,-70.89087274012569L67.55930822458707,-50.98689297730806M-176.70989344577964,-86.23017479723943L-176.7098934457796,78.81732220913135" style="fill:none;stroke:rgb(0,0,0);stroke-width:1;stroke-linecap:round"></path><path d="M-176.70989344577958,-86.23017479723943L-176.70989344577958,78.81732220913133L-91.87089421662445,-156.72044996936958z" style="fill:rgb(238,238,238); fill-opacity: 0.4"></path><path d="M67.55930822458706,-50.98689297730806L-38.37959783332947,-75.01386844007685L91.51486407440227,-70.8908727401257z" style="fill:rgb(153,221,255); fill-opacity: 0.4"></path><path d="M-245.17191897006506,-101.75738258721012L-176.70989344577958,-86.23017479723943L-160.3329197409099,-172.24765775934029z" style="fill:rgb(238,238,238); fill-opacity: 0.4"></path><path d="M-38.379597833329484,-121.61748904301274L67.55930822458707,-97.59051358024396" style="fill:none;stroke:rgb(0,0,0);stroke-width:1;stroke-linecap:round"></path><path d="M-38.379597833329484,-121.61748904301277L67.55930822458706,-97.590513580244L-14.42404198351429,-141.52146880583038z" style="fill:rgb(153,221,255); fill-opacity: 0.4"></path><path d="M-17.326096277552047,23.570216323675584L-98.41715851959299,90.94643885551133L-98.41715851959302,-66.80974608587431z" style="fill:rgb(238,238,238); fill-opacity: 0.4"></path><path d="M67.55930822458706,-97.590513580244L91.51486407440227,-117.4944933430616L-14.42404198351429,-141.52146880583038z" style="fill:rgb(153,221,255); fill-opacity: 0.4"></path><path d="M-245.17191897006506,63.290114419160645L-176.70989344577958,78.81732220913133L-176.70989344577958,-86.23017479723943zM7.521747538323553,114.97341431828013L88.61280978036447,47.59719178644436L88.61280978036447,-110.15899315494127z" style="fill:rgb(238,238,238); fill-opacity: 0.4"></path><path d="M91.5148639288509,-117.4944933760727L91.5148639288509,-70.89087277313678L67.55930807903574,-50.98689301031914z" style="fill:rgb(255,187,187); fill-opacity: 0.4"></path><path d="M67.55930822458706,-50.98689297730806L91.51486407440227,-70.8908727401257L91.51486407440227,-117.4944933430616z" style="fill:rgb(153,221,255); fill-opacity: 0.4"></path><path d="M-373.0382529688237,-139.16472407606219L-331.06095395901735,-129.6442601517837M91.51485977980913,-117.49449924334107L67.55930202617743,-97.59051789869724M91.51485977980913,-117.49449924334107L154.29289557128965,-62.33017970389851M91.51486407440225,-117.49449334306159L67.55930822458707,-97.59051358024396" style="fill:none;stroke:rgb(0,0,0);stroke-width:1;stroke-linecap:round"></path><path d="M-38.379597833329484,-121.61748904301277L-38.37959783332947,-75.01386844007685L67.55930822458706,-97.590513580244z" style="fill:rgb(153,221,255); fill-opacity: 0.4"></path><path d="M88.61280978036447,-110.15899315494127L7.52174753832354,-42.78277062310551" style="fill:none;stroke:rgb(0,0,0);stroke-width:1;stroke-linecap:round"></path><path d="M7.521747538323553,114.97341431828013L-98.41715851959299,90.94643885551133L88.61280978036447,47.59719178644436z" style="fill:rgb(238,238,238); fill-opacity: 0.4"></path><path d="M91.5148639288509,-70.89087277313678L91.5148639288509,-117.4944933760727L154.2929015502225,-62.33017978755873z" style="fill:rgb(255,187,187); fill-opacity: 0.4"></path><path d="M-38.37959783332947,-75.01386844007685L67.55930822458706,-50.98689297730806L67.55930822458706,-97.590513580244z" style="fill:rgb(153,221,255); fill-opacity: 0.4"></path><path d="M295.3126709494106,92.57474488466806L162.88903473308415,62.5410247297625L162.88903473308415,-86.87887973893459zM-245.17191897006506,-101.75738258721012L-245.17191897006506,63.290114419160645L-176.70989344577958,-86.23017479723943z" style="fill:rgb(238,238,238); fill-opacity: 0.4"></path><path d="M67.55930807903574,-50.98689301031914L91.5148639288509,-70.89087277313678L154.2929015502225,-62.33017978755873z" style="fill:rgb(255,187,187); fill-opacity: 0.4"></path><path d="M-98.41715851959302,-66.80974608587431L-98.417158519593,90.94643885551133M-98.417158519593,90.94643885551133L7.521747538323553,114.9734143182801M67.55930202617743,-50.98689359203835L67.55930202617743,-97.59051789869724M67.55930202617743,-50.98689359203835L154.29289557128965,-62.33017970389851M67.55930822458707,-97.59051358024396L67.55930822458707,-50.98689297730806" style="fill:none;stroke:rgb(0,0,0);stroke-width:1;stroke-linecap:round"></path><path d="M91.5148639288509,-117.4944933760727L67.55930807903574,-50.98689301031914L67.55930807903572,-97.59051361325507z" style="fill:rgb(255,187,187); fill-opacity: 0.4"></path><path d="M67.55930822458706,-97.590513580244L67.55930822458706,-50.98689297730806L91.51486407440227,-117.4944933430616z" style="fill:rgb(153,221,255); fill-opacity: 0.4"></path><path d="M91.5148639288509,-117.4944933760727L67.55930807903572,-97.59051361325507L154.2929015502225,-62.33017978755873z" style="fill:rgb(255,187,187); fill-opacity: 0.4"></path><path d="M-245.17191897006512,-101.75738258721013L-176.70989344577964,-86.23017479723943M295.3126709494106,-56.845159584029034L295.31267094941063,92.57474488466806M295.31267094941063,92.57474488466806L218.5066884900043,156.39061833463202" style="fill:none;stroke:rgb(0,0,0);stroke-width:1;stroke-linecap:round"></path><path d="M7.52174753832354,-42.78277062310552L88.61280978036447,-110.15899315494127L-17.326096277552075,-134.18596861771005zM86.0830522736778,126.35689817972646L162.88903473308415,62.5410247297625L295.3126709494106,92.57474488466806z" style="fill:rgb(238,238,238); fill-opacity: 0.4"></path><path d="M67.55930807903572,-97.59051361325507L67.55930807903574,-50.98689301031914L154.2929015502225,-62.33017978755873z" style="fill:rgb(255,187,187); fill-opacity: 0.4"></path><path d="M295.3126709494106,-56.845159584029034L162.88903473308415,-86.87887973893461M162.88903473308415,-86.87887973893461L86.08305227367781,-23.06300628897065M67.55930202617743,-97.59051789869724L154.29289557128965,-62.33017970389851" style="fill:none;stroke:rgb(0,0,0);stroke-width:1;stroke-linecap:round"></path><path d="M295.3126709494106,-56.845159584029034L295.3126709494106,92.57474488466806L162.88903473308415,-86.87887973893459zM162.88903473308415,-86.87887973893459L162.88903473308415,62.5410247297625L86.0830522736778,-23.063006288970637zM-98.41715851959302,-66.80974608587431L7.52174753832354,-42.78277062310552L-17.326096277552075,-134.18596861771005z" style="fill:rgb(238,238,238); fill-opacity: 0.4"></path><path d="M7.52174753832354,-42.78277062310551L7.521747538323553,114.9734143182801" style="fill:none;stroke:rgb(0,0,0);stroke-width:1;stroke-linecap:round"></path><path d="M7.52174753832354,-42.78277062310552L7.521747538323553,114.97341431828013L88.61280978036447,-110.15899315494127zM-98.41715851959299,90.94643885551133L7.521747538323553,114.97341431828013L7.52174753832354,-42.78277062310552z" style="fill:rgb(238,238,238); fill-opacity: 0.4"></path><path d="M403.2970316468189,238.90849607462232L363.5699436970655,229.89838068930632M363.5699436970655,-103.92469200760792L363.5699436970655,229.89838068930632M363.5699436970655,229.89838068930632L342.8140370968829,247.14386426393003" style="fill:none;stroke:rgb(0,0,0);stroke-width:1;stroke-linecap:round"></path><path d="M162.88903473308415,62.5410247297625L86.0830522736778,126.35689817972646L86.0830522736778,-23.063006288970637zM-98.41715851959302,-66.80974608587431L-98.41715851959299,90.94643885551133L7.52174753832354,-42.78277062310552z" style="fill:rgb(238,238,238); fill-opacity: 0.4"></path><path d="M-98.41715851959302,-66.80974608587431L7.52174753832354,-42.78277062310551" style="fill:none;stroke:rgb(0,0,0);stroke-width:1;stroke-linecap:round"></path><path d="M342.8140370968829,247.14386426393003L363.5699436970656,229.89838068930632L403.29703164681894,238.90849607462232zM218.50668849000425,156.39061833463202L86.0830522736778,126.35689817972646L295.3126709494106,92.57474488466806z" style="fill:rgb(238,238,238); fill-opacity: 0.4"></path><path d="M403.2970316468188,-94.9145766222919L403.2970316468189,238.90849607462232M403.2970316468189,238.90849607462232L382.5411250466362,256.153979649246" style="fill:none;stroke:rgb(0,0,0);stroke-width:1;stroke-linecap:round"></path><path d="M218.50668849000425,156.39061833463202L295.3126709494106,92.57474488466806L295.3126709494106,-56.845159584029034z" style="fill:rgb(238,238,238); fill-opacity: 0.4"></path><path d="M86.08305227367781,-23.06300628897065L86.08305227367784,126.35689817972646M86.08305227367784,126.35689817972646L218.5066884900043,156.39061833463202M295.3126709494106,-56.845159584029034L218.50668849000428,6.97071386593492M342.8140370968828,-86.6792084329842L342.8140370968829,247.14386426393003M342.8140370968829,247.14386426393003L382.5411250466362,256.153979649246" style="fill:none;stroke:rgb(0,0,0);stroke-width:1;stroke-linecap:round"></path><path d="M382.54112504663624,256.153979649246L342.8140370968829,247.14386426393003L403.29703164681894,238.90849607462232zM218.50668849000425,6.97071386593492L295.3126709494106,-56.845159584029034L162.88903473308415,-86.87887973893459z" style="fill:rgb(238,238,238); fill-opacity: 0.4"></path><path d="M382.5411250466362,-77.66909304766818L382.5411250466362,256.153979649246" style="fill:none;stroke:rgb(0,0,0);stroke-width:1;stroke-linecap:round"></path><path d="M403.29703164681894,238.90849607462232L363.5699436970656,229.89838068930632L363.5699436970655,-103.92469200760792z" style="fill:rgb(238,238,238); fill-opacity: 0.4"></path><path d="M280.5941608967551,55.144376764016535L323.8981288597344,64.96572960220996" style="fill:none;stroke:rgb(0,0,0);stroke-width:1;stroke-linecap:round"></path><path d="M86.0830522736778,-23.063006288970637L218.50668849000425,6.97071386593492L162.88903473308415,-86.87887973893459zM363.5699436970656,229.89838068930632L342.8140370968829,247.14386426393003L342.8140370968829,-86.6792084329842z" style="fill:rgb(238,238,238); fill-opacity: 0.4"></path><path d="M519.4428883028668,206.0161023380829L479.7158003531135,197.0059869527669M479.7158003531135,-18.34846847106108L479.7158003531135,197.0059869527669M479.7158003531135,197.0059869527669L458.9598937529308,214.2514705273906M218.50668849000428,6.97071386593492L218.5066884900043,156.39061833463202" style="fill:none;stroke:rgb(0,0,0);stroke-width:1;stroke-linecap:round"></path><path d="M382.54112504663624,256.153979649246L403.29703164681894,238.90849607462232L403.29703164681894,-94.9145766222919zM86.0830522736778,126.35689817972646L218.50668849000425,156.39061833463202L218.50668849000425,6.97071386593492zM218.50668849000425,6.97071386593492L218.50668849000425,156.39061833463202L295.3126709494106,-56.845159584029034z" style="fill:rgb(238,238,238); fill-opacity: 0.4"></path><path d="M319.1516521804431,71.90971320094224L323.89812885973436,74.67481722782159L349.37105119089864,70.74299597761788z" style="fill:rgb(0,0,0)"></path><path d="M86.0830522736778,-23.063006288970637L86.0830522736778,126.35689817972646L218.50668849000425,6.97071386593492z" style="fill:rgb(238,238,238); fill-opacity: 0.4"></path><path d="M326.83161265974536,54.67356563327198L320.96464505972335,59.54825963378061L349.37105119089864,70.74299597761788z" style="fill:rgb(0,0,0)"></path><path d="M86.08305227367781,-23.06300628897065L218.50668849000428,6.97071386593492" style="fill:none;stroke:rgb(0,0,0);stroke-width:1;stroke-linecap:round"></path><path d="M320.96464505972335,59.54825963378061L319.1516521804431,71.90971320094224L349.37105119089864,70.74299597761788z" style="fill:rgb(0,0,0)"></path><path d="M458.95989375293084,214.25147052739064L479.7158003531136,197.00598695276688L519.4428883028668,206.01610233808287zM342.8140370968829,247.14386426393003L382.54112504663624,256.153979649246L382.54112504663624,-77.66909304766818z" style="fill:rgb(238,238,238); fill-opacity: 0.4"></path><path d="M519.4428883028668,-9.33835308574507L519.4428883028668,206.0161023380829M519.4428883028668,206.0161023380829L498.6869817026842,223.2615859127066M396.7400175528031,81.48629166402026L440.04398551578237,91.30764450221369M458.9598937529308,-1.1029848964373519L458.9598937529308,214.2514705273906M458.9598937529308,214.2514705273906L498.6869817026842,223.2615859127066" style="fill:none;stroke:rgb(0,0,0);stroke-width:1;stroke-linecap:round"></path><path d="M363.5699436970655,-103.92469200760792L363.5699436970656,229.89838068930632L342.8140370968829,-86.6792084329842zM498.6869817026841,223.26158591270664L458.95989375293084,214.25147052739064L519.4428883028668,206.01610233808287zM403.29703164681894,-94.9145766222919L403.29703164681894,238.90849607462232L363.5699436970655,-103.92469200760792zM519.4428883028668,206.01610233808287L479.7158003531136,197.00598695276688L479.7158003531136,-18.348468471061082z" style="fill:rgb(238,238,238); fill-opacity: 0.4"></path><path d="M498.6869817026841,7.907130488878656L498.6869817026842,223.2615859127066" style="fill:none;stroke:rgb(0,0,0);stroke-width:1;stroke-linecap:round"></path><path d="M479.7158003531136,197.00598695276688L458.95989375293084,214.25147052739064L458.95989375293084,-1.1029848964373583z" style="fill:rgb(238,238,238); fill-opacity: 0.4"></path><path d="M435.29750883649115,98.251628100946L440.04398551578237,101.01673212782535L465.51690784694665,97.08491087762158z" style="fill:rgb(0,0,0)"></path><path d="M635.5887449589147,218.89836192223586L595.8616570091615,209.88824653691987M595.8616570091614,21.45310174479341L595.8616570091615,209.88824653691987M595.8616570091615,209.88824653691987L575.1057504089788,227.13373011154357" style="fill:none;stroke:rgb(0,0,0);stroke-width:1;stroke-linecap:round"></path><path d="M442.97746931579337,81.01548053327573L437.1105017157714,85.89017453378436L465.51690784694665,97.08491087762158zM437.1105017157714,85.89017453378436L435.29750883649115,98.251628100946L465.51690784694665,97.08491087762158z" style="fill:rgb(0,0,0)"></path><path d="M498.6869817026841,223.26158591270664L519.4428883028668,206.01610233808287L519.4428883028668,-9.338353085745076zM342.8140370968829,-86.6792084329842L342.8140370968829,247.14386426393003L382.54112504663624,-77.66909304766818zM382.54112504663624,-77.66909304766818L382.54112504663624,256.153979649246L403.29703164681894,-94.9145766222919z" style="fill:rgb(238,238,238); fill-opacity: 0.4"></path><path d="M403.2970316468188,-94.9145766222919L363.5699436970655,-103.92469200760792M363.5699436970655,-103.92469200760792L342.8140370968828,-86.6792084329842" style="fill:none;stroke:rgb(0,0,0);stroke-width:1;stroke-linecap:round"></path><path d="M575.1057504089788,227.13373011154354L595.8616570091615,209.88824653691984L635.5887449589147,218.89836192223584z" style="fill:rgb(238,238,238); fill-opacity: 0.4"></path><path d="M635.5887449589147,30.46321713010942L635.5887449589147,218.89836192223586M635.5887449589147,218.89836192223586L614.8328383587321,236.14384549685957" style="fill:none;stroke:rgb(0,0,0);stroke-width:1;stroke-linecap:round"></path><path d="M479.7158003531136,-18.348468471061082L479.7158003531136,197.00598695276688L458.95989375293084,-1.1029848964373583zM519.4428883028668,-9.338353085745076L519.4428883028668,206.01610233808287L479.7158003531136,-18.348468471061082zM458.95989375293084,214.25147052739064L498.6869817026841,223.26158591270664L498.6869817026841,7.907130488878649z" style="fill:rgb(238,238,238); fill-opacity: 0.4"></path><path d="M512.885874208851,107.82820656402393L556.1898421718303,117.64955940221736M403.2970316468188,-94.9145766222919L382.5411250466362,-77.66909304766818M575.1057504089788,38.69858531941713L575.1057504089788,227.13373011154357M575.1057504089788,227.13373011154357L614.8328383587321,236.14384549685957" style="fill:none;stroke:rgb(0,0,0);stroke-width:1;stroke-linecap:round"></path><path d="M614.832838358732,236.1438454968595L575.1057504089788,227.13373011154354L635.5887449589147,218.89836192223584zM635.5887449589147,218.89836192223584L595.8616570091615,209.88824653691984L595.8616570091615,21.453101744793408zM382.54112504663624,-77.66909304766818L403.29703164681894,-94.9145766222919L363.5699436970655,-103.92469200760792z" style="fill:rgb(238,238,238); fill-opacity: 0.4"></path><path d="M519.4428883028668,-9.33835308574507L479.7158003531135,-18.34846847106108M479.7158003531135,-18.34846847106108L458.9598937529308,-1.1029848964373519" style="fill:none;stroke:rgb(0,0,0);stroke-width:1;stroke-linecap:round"></path><path d="M342.8140370968829,-86.6792084329842L382.54112504663624,-77.66909304766818L363.5699436970655,-103.92469200760792zM458.95989375293084,-1.1029848964373583L458.95989375293084,214.25147052739064L498.6869817026841,7.907130488878649zM498.6869817026841,7.907130488878649L498.6869817026841,223.26158591270664L519.4428883028668,-9.338353085745076z" style="fill:rgb(238,238,238); fill-opacity: 0.4"></path><path d="M342.8140370968828,-86.6792084329842L382.5411250466362,-77.66909304766818" style="fill:none;stroke:rgb(0,0,0);stroke-width:1;stroke-linecap:round"></path><path d="M595.8616570091615,209.88824653691984L575.1057504089788,227.13373011154354L575.1057504089788,38.69858531941712z" style="fill:rgb(238,238,238); fill-opacity: 0.4"></path><path d="M551.443365492539,124.59354300094967L556.1898421718303,127.35864702782902L581.6627645029945,123.42682577762528z" style="fill:rgb(0,0,0)"></path><path d="M614.832838358732,47.70870070473313L614.8328383587321,236.14384549685957" style="fill:none;stroke:rgb(0,0,0);stroke-width:1;stroke-linecap:round"></path><path d="M559.1233259718413,107.35739543327941L553.2563583718193,112.23208943378803L581.6627645029945,123.42682577762528zM553.2563583718193,112.23208943378803L551.443365492539,124.59354300094967L581.6627645029945,123.42682577762528z" style="fill:rgb(0,0,0)"></path><path d="M614.832838358732,236.1438454968595L635.5887449589147,218.89836192223584L635.5887449589147,30.463217130109413z" style="fill:rgb(238,238,238); fill-opacity: 0.4"></path><path d="M751.7346016149628,231.78062150638883L712.0075136652096,222.77050612107283M712.0075136652094,61.25467196064786L712.0075136652096,222.77050612107283M712.0075136652096,222.77050612107283L691.2516070650267,240.01598969569653M519.4428883028668,-9.33835308574507L498.6869817026841,7.907130488878656" style="fill:none;stroke:rgb(0,0,0);stroke-width:1;stroke-linecap:round"></path><path d="M498.6869817026841,7.907130488878649L519.4428883028668,-9.338353085745076L479.7158003531136,-18.348468471061082zM595.8616570091615,21.453101744793408L595.8616570091615,209.88824653691984L575.1057504089788,38.69858531941712zM458.95989375293084,-1.1029848964373583L498.6869817026841,7.907130488878649L479.7158003531136,-18.348468471061082zM635.5887449589147,30.463217130109413L635.5887449589147,218.89836192223584L595.8616570091615,21.453101744793408z" style="fill:rgb(238,238,238); fill-opacity: 0.4"></path><path d="M458.9598937529308,-1.1029848964373519L498.6869817026841,7.907130488878656" style="fill:none;stroke:rgb(0,0,0);stroke-width:1;stroke-linecap:round"></path><path d="M575.1057504089788,227.13373011154354L614.832838358732,236.1438454968595L614.832838358732,47.708700704733126zM691.2516070650267,240.01598969569648L712.0075136652096,222.7705061210728L751.7346016149628,231.78062150638877z" style="fill:rgb(238,238,238); fill-opacity: 0.4"></path><path d="M751.7346016149628,70.26478734596387L751.7346016149628,231.78062150638883M751.7346016149628,231.78062150638883L730.9786950147802,249.02610508101253M629.031730864899,134.1701214640277L672.3356988278783,143.99147430222112M635.5887449589147,30.46321713010942L595.8616570091614,21.45310174479341M595.8616570091614,21.45310174479341L575.1057504089788,38.69858531941713" style="fill:none;stroke:rgb(0,0,0);stroke-width:1;stroke-linecap:round"></path><path d="M751.7346016149628,231.78062150638877L712.0075136652096,222.7705061210728L712.0075136652096,61.25467196064785z" style="fill:rgb(238,238,238); fill-opacity: 0.4"></path><path d="M691.2516070650267,78.50015553527157L691.2516070650267,240.01598969569653M691.2516070650267,240.01598969569653L730.9786950147802,249.02610508101253" style="fill:none;stroke:rgb(0,0,0);stroke-width:1;stroke-linecap:round"></path><path d="M730.9786950147801,249.02610508101247L691.2516070650267,240.01598969569648L751.7346016149628,231.78062150638877zM575.1057504089788,38.69858531941712L575.1057504089788,227.13373011154354L614.832838358732,47.708700704733126zM614.832838358732,47.708700704733126L614.832838358732,236.1438454968595L635.5887449589147,30.463217130109413z" style="fill:rgb(238,238,238); fill-opacity: 0.4"></path><path d="M667.589222148587,150.93545790095342L672.3356988278783,153.70056192783278L697.8086211590426,149.768740677629z" style="fill:rgb(0,0,0)"></path><path d="M635.5887449589147,30.46321713010942L614.832838358732,47.70870070473313" style="fill:none;stroke:rgb(0,0,0);stroke-width:1;stroke-linecap:round"></path><path d="M675.2691826278893,133.69931033328317L669.4022150278673,138.57400433379178L697.8086211590426,149.768740677629z" style="fill:rgb(0,0,0)"></path><path d="M712.0075136652096,222.7705061210728L691.2516070650267,240.01598969569648L691.2516070650267,78.50015553527156z" style="fill:rgb(238,238,238); fill-opacity: 0.4"></path><path d="M669.4022150278673,138.57400433379178L667.589222148587,150.93545790095342L697.8086211590426,149.768740677629z" style="fill:rgb(0,0,0)"></path><path d="M614.832838358732,47.708700704733126L635.5887449589147,30.463217130109413L595.8616570091615,21.453101744793408z" style="fill:rgb(238,238,238); fill-opacity: 0.4"></path><path d="M730.9786950147801,87.51027092058759L730.9786950147802,249.02610508101253" style="fill:none;stroke:rgb(0,0,0);stroke-width:1;stroke-linecap:round"></path><path d="M730.9786950147801,249.02610508101247L751.7346016149628,231.78062150638877L751.7346016149628,70.26478734596385zM575.1057504089788,38.69858531941712L614.832838358732,47.708700704733126L595.8616570091615,21.453101744793408zM712.0075136652096,61.25467196064785L712.0075136652096,222.7705061210728L691.2516070650267,78.50015553527156zM751.7346016149628,70.26478734596385L751.7346016149628,231.78062150638877L712.0075136652096,61.25467196064785z" style="fill:rgb(238,238,238); fill-opacity: 0.4"></path><path d="M575.1057504089788,38.69858531941713L614.832838358732,47.70870070473313M867.8804582710108,222.07661896183586L828.1533703212575,213.06650357651986M828.1533703212574,123.64250430520826L828.1533703212575,213.06650357651986M828.1533703212575,213.06650357651986L807.3974637210748,230.31198715114357" style="fill:none;stroke:rgb(0,0,0);stroke-width:1;stroke-linecap:round"></path><path d="M691.2516070650267,240.01598969569648L730.9786950147801,249.02610508101247L730.9786950147801,87.5102709205876z" style="fill:rgb(238,238,238); fill-opacity: 0.4"></path><path d="M745.177587520947,160.51203636403136L788.4815554839262,170.3333892022248M751.7346016149628,70.26478734596387L712.0075136652094,61.25467196064786M712.0075136652094,61.25467196064786L691.2516070650267,78.50015553527157" style="fill:none;stroke:rgb(0,0,0);stroke-width:1;stroke-linecap:round"></path><path d="M807.3974637210748,230.31198715114357L828.1533703212575,213.0665035765199L867.8804582710108,222.0766189618359z" style="fill:rgb(238,238,238); fill-opacity: 0.4"></path><path d="M867.8804582710108,132.65261969052426L867.8804582710108,222.07661896183586M867.8804582710108,222.07661896183586L847.1245516708282,239.32210253645957" style="fill:none;stroke:rgb(0,0,0);stroke-width:1;stroke-linecap:round"></path><path d="M867.8804582710108,222.0766189618359L828.1533703212575,213.0665035765199L828.1533703212575,123.64250430520826zM691.2516070650267,78.50015553527156L691.2516070650267,240.01598969569648L730.9786950147801,87.5102709205876zM730.9786950147801,87.5102709205876L730.9786950147801,249.02610508101247L751.7346016149628,70.26478734596385z" style="fill:rgb(238,238,238); fill-opacity: 0.4"></path><path d="M751.7346016149628,70.26478734596387L730.9786950147801,87.51027092058759" style="fill:none;stroke:rgb(0,0,0);stroke-width:1;stroke-linecap:round"></path><path d="M730.9786950147801,87.5102709205876L751.7346016149628,70.26478734596385L712.0075136652096,61.25467196064785z" style="fill:rgb(238,238,238); fill-opacity: 0.4"></path><path d="M783.735078804635,177.2773728009571L788.4815554839262,180.04247682783645L813.9544778150905,176.1106555776327zM791.4150392839372,160.04122523328684L785.5480716839153,164.91591923379545L813.9544778150905,176.1106555776327zM785.5480716839153,164.91591923379545L783.735078804635,177.2773728009571L813.9544778150905,176.1106555776327z" style="fill:rgb(0,0,0)"></path><path d="M807.3974637210748,140.88798787983197L807.3974637210748,230.31198715114357M807.3974637210748,230.31198715114357L847.1245516708282,239.32210253645957" style="fill:none;stroke:rgb(0,0,0);stroke-width:1;stroke-linecap:round"></path><path d="M691.2516070650267,78.50015553527156L730.9786950147801,87.5102709205876L712.0075136652096,61.25467196064785zM847.1245516708282,239.32210253645957L807.3974637210748,230.31198715114357L867.8804582710108,222.0766189618359zM828.1533703212575,213.0665035765199L807.3974637210748,230.31198715114357L807.3974637210748,140.88798787983197zM828.1533703212575,123.64250430520826L828.1533703212575,213.0665035765199L807.3974637210748,140.88798787983197zM867.8804582710108,132.65261969052426L867.8804582710108,222.0766189618359L828.1533703212575,123.64250430520826z" style="fill:rgb(238,238,238); fill-opacity: 0.4"></path><path d="M691.2516070650267,78.50015553527157L730.9786950147801,87.51027092058759M867.8804582710108,132.65261969052426L828.1533703212574,123.64250430520826M828.1533703212574,123.64250430520826L807.3974637210748,140.88798787983197" style="fill:none;stroke:rgb(0,0,0);stroke-width:1;stroke-linecap:round"></path><path d="M847.1245516708282,239.32210253645957L867.8804582710108,222.0766189618359L867.8804582710108,132.65261969052426z" style="fill:rgb(238,238,238); fill-opacity: 0.4"></path><path d="M847.124551670828,149.898103265148L847.1245516708282,239.32210253645957M867.8804582710108,132.65261969052426L847.124551670828,149.898103265148" style="fill:none;stroke:rgb(0,0,0);stroke-width:1;stroke-linecap:round"></path><path d="M807.3974637210748,230.31198715114357L847.1245516708282,239.32210253645957L847.1245516708282,149.898103265148zM847.1245516708282,149.898103265148L867.8804582710108,132.65261969052426L828.1533703212575,123.64250430520826zM807.3974637210748,140.88798787983197L807.3974637210748,230.31198715114357L847.1245516708282,149.898103265148zM847.1245516708282,149.898103265148L847.1245516708282,239.32210253645957L867.8804582710108,132.65261969052426zM807.3974637210748,140.88798787983197L847.1245516708282,149.898103265148L828.1533703212575,123.64250430520826z" style="fill:rgb(238,238,238); fill-opacity: 0.4"></path><path d="M807.3974637210748,140.88798787983197L847.124551670828,149.898103265148" style="fill:none;stroke:rgb(0,0,0);stroke-width:1;stroke-linecap:round"></path></svg>