<svg viewBox="-960 -459.5 1920 919" width="1920" height="919" style="background-color: rgb(255, 255, 255);" xmlns="http://www.w3.org/2000/svg"><path d="M-181.68428266308504,57.19527442475819L-185.6854994380389,56.69246319232197M-185.6854994380389,-163.78054475571378L-185.6854994380389,56.69246319232197M-185.6854994380389,56.69246319232197L-292.68669599015686,103.66610290589692M-181.68428266308504,-163.27773352327753L-181.68428266308504,57.19527442475819M-181.68428266308504,57.19527442475819L-288.68547921520303,104.16891413833316" style="fill:none;stroke:rgb(0,0,0);stroke-width:1;stroke-linecap:round"></path><path d="M-181.68428266308504,57.195274424758196L-185.6854994380389,56.692463192321966L-185.6854994380389,-163.78054475571378zM-181.68428266308504,-163.27773352327756L-181.68428266308504,57.195274424758196L-185.6854994380389,-163.78054475571378z" style="fill:rgb(238,238,238); fill-opacity: 0.4"></path><path d="M33.82120529509108,82.49689945177586L-104.8504052202344,65.07078951852151M-104.8504052202344,-150.4989223678606L-104.8504052202344,65.07078951852151M-104.8504052202344,65.07078951852151L-209.4719066317577,110.9997405205268M-181.68428266308504,-163.27773352327753L-185.6854994380389,-163.78054475571378M-185.6854994380389,-163.78054475571378L-292.68669599015686,-116.80690504213884M-181.68428266308504,-163.27773352327753L-288.68547921520303,-116.30409380970261" style="fill:none;stroke:rgb(0,0,0);stroke-width:1;stroke-linecap:round"></path><path d="M-292.68669599015686,103.66610290589692L-185.6854994380389,56.692463192321966L-181.68428266308504,57.195274424758196zM-288.68547921520303,104.16891413833315L-181.68428266308504,57.195274424758196L-181.68428266308504,-163.27773352327756zM33.821205295091104,82.49689945177587L-104.85040522023442,65.07078951852151L-104.85040522023442,-150.4989223678606z" style="fill:rgb(238,238,238); fill-opacity: 0.4"></path><path d="M33.82120529509108,-133.0728124346062L-104.8504052202344,-150.4989223678606M-104.8504052202344,-150.4989223678606L-209.4719066317577,-104.56997136585524" style="fill:none;stroke:rgb(0,0,0);stroke-width:1;stroke-linecap:round"></path><path d="M-185.6854994380389,-163.78054475571378L-185.6854994380389,56.692463192321966L-292.68669599015686,-116.80690504213884z" style="fill:rgb(238,238,238); fill-opacity: 0.4"></path><path d="M33.82120529509108,-133.0728124346062L33.82120529509108,82.49689945177586M33.82120529509108,82.49689945177586L-70.80029611643218,128.42585045378115" style="fill:none;stroke:rgb(0,0,0);stroke-width:1;stroke-linecap:round"></path><path d="M-288.68547921520303,-116.30409380970261L-181.68428266308504,-163.27773352327756L-185.6854994380389,-163.78054475571378zM33.821205295091104,-133.0728124346062L33.821205295091104,82.49689945177587L-104.85040522023442,-150.4989223678606zM-288.68547921520303,104.16891413833315L-292.68669599015686,103.66610290589692L-181.68428266308504,57.195274424758196zM-209.4719066317577,110.9997405205268L-104.85040522023442,65.07078951852151L33.821205295091104,82.49689945177587zM-104.85040522023442,-150.4989223678606L-104.85040522023442,65.07078951852151L-209.4719066317577,-104.56997136585524z" style="fill:rgb(238,238,238); fill-opacity: 0.4"></path><path d="M-254.60717999621133,29.453194817194444L-258.60839677116525,28.950383584758217M-258.60839677116525,-23.981064554024023L-258.60839677116525,28.950383584758217M-258.60839677116525,28.950383584758217L-284.29738400274954,40.227876451254424" style="fill:none;stroke:rgb(0,0,0);stroke-width:1;stroke-linecap:round"></path><path d="M-185.6854994380389,56.692463192321966L-292.68669599015686,103.66610290589692L-292.68669599015686,-116.80690504213884z" style="fill:rgb(238,238,238); fill-opacity: 0.4"></path><path d="M-256.6077843470096,-23.729658915033003L-256.6077843470096,29.201787383355814M-256.6077843470096,29.201787383355814L-282.2967736201713,40.47928114610662M-256.6077843470096,29.201787383355814L-188.71033213362563,17.581901590794594M-254.60717999621133,-23.478253321587793L-254.60717999621133,29.453194817194444M-254.60717999621133,29.453194817194444L-280.29616722779565,40.730687683690654" style="fill:none;stroke:rgb(0,0,0);stroke-width:1;stroke-linecap:round"></path><path d="M-254.60717999621133,29.45319481719444L-258.6083967711652,28.950383584758207L-258.6083967711652,-23.981064554024027zM-254.60717999621133,-23.478253321587797L-254.60717999621133,29.45319481719444L-258.6083967711652,-23.981064554024027z" style="fill:rgb(153,221,255); fill-opacity: 0.4"></path><path d="M-25.348985844549613,84.00163902960117L-164.0205963598751,66.57552909634681M-164.0205963598751,13.644080957564567L-164.0205963598751,66.57552909634681M-164.0205963598751,66.57552909634681L-189.70958359145942,77.853021962843M-254.60717999621133,-23.478253321587793L-258.60839677116525,-23.981064554024023M-258.60839677116525,-23.981064554024023L-284.29738400274954,-12.703571687527818M-256.6077843470096,-23.729658915033003L-282.2967736201713,-12.452165152282186M-256.6077843470096,-23.729658915033003L-188.71033213362563,17.581901590794594M-254.60717999621133,-23.478253321587793L-280.29616722779565,-12.200760455091592M278.9663265424161,111.3806433046713L112.56040613477009,90.46931291922415M112.56040613477009,-119.8044239436821L112.56040613477009,90.46931291922415M112.56040613477009,90.46931291922415L10.509177019597962,135.26991163447937" style="fill:none;stroke:rgb(0,0,0);stroke-width:1;stroke-linecap:round"></path><path d="M-284.2973840027495,40.22787645125441L-258.6083967711652,28.950383584758207L-254.60717999621133,29.45319481719444z" style="fill:rgb(153,221,255); fill-opacity: 0.4"></path><path d="M-288.68547921520303,-116.30409380970261L-288.68547921520303,104.16891413833315L-181.68428266308504,-163.27773352327756z" style="fill:rgb(238,238,238); fill-opacity: 0.4"></path><path d="M-256.6077883836883,-23.72965893780591L-256.6077883836883,29.20178920097632L-282.29677561527257,40.479282067472525z" style="fill:rgb(255,187,187); fill-opacity: 0.4"></path><path d="M-280.29616722779565,40.73068768369064L-254.60717999621133,29.45319481719444L-254.60717999621133,-23.478253321587797z" style="fill:rgb(153,221,255); fill-opacity: 0.4"></path><path d="M33.82120529509108,-133.0728124346062L-70.80029611643218,-87.1438614326009" style="fill:none;stroke:rgb(0,0,0);stroke-width:1;stroke-linecap:round"></path><path d="M-258.6083967711652,-23.981064554024027L-258.6083967711652,28.950383584758207L-284.2973840027495,-12.703571687527829z" style="fill:rgb(153,221,255); fill-opacity: 0.4"></path><path d="M-25.348985844549613,31.07019089081893L-164.0205963598751,13.644080957564567M-164.0205963598751,13.644080957564567L-189.70958359145942,24.921573824060772" style="fill:none;stroke:rgb(0,0,0);stroke-width:1;stroke-linecap:round"></path><path d="M-256.6077883836883,29.20178920097632L-256.6077883836883,-23.72965893780591L-188.7103355117655,17.5819020069044z" style="fill:rgb(255,187,187); fill-opacity: 0.4"></path><path d="M-280.29616722779565,-12.200760455091595L-254.60717999621133,-23.478253321587797L-258.6083967711652,-23.981064554024027zM-280.29616722779565,40.73068768369064L-284.2973840027495,40.22787645125441L-254.60717999621133,29.45319481719444zM-258.6083967711652,28.950383584758207L-284.2973840027495,40.22787645125441L-284.2973840027495,-12.703571687527829zM-164.0205963598751,13.644080957564565L-164.0205963598751,66.57552909634683L-189.70958359145942,24.92157382406077z" style="fill:rgb(153,221,255); fill-opacity: 0.4"></path><path d="M-292.68669599015686,-116.80690504213884L-288.68547921520303,-116.30409380970261L-185.6854994380389,-163.78054475571378z" style="fill:rgb(238,238,238); fill-opacity: 0.4"></path><path d="M-282.29677561527257,40.479282067472525L-256.6077883836883,29.20178920097632L-188.7103355117655,17.5819020069044z" style="fill:rgb(255,187,187); fill-opacity: 0.4"></path><path d="M-25.348985844549603,84.0016390296012L-164.0205963598751,66.57552909634683L-164.0205963598751,13.644080957564565z" style="fill:rgb(153,221,255); fill-opacity: 0.4"></path><path d="M-256.6077883836883,-23.72965893780591L-282.29677561527257,40.479282067472525L-282.29677561527257,-12.452166071309712z" style="fill:rgb(255,187,187); fill-opacity: 0.4"></path><path d="M-280.29616722779565,-12.200760455091595L-280.29616722779565,40.73068768369064L-254.60717999621133,-23.478253321587797z" style="fill:rgb(153,221,255); fill-opacity: 0.4"></path><path d="M-104.85040522023442,65.07078951852151L-209.4719066317577,110.9997405205268L-209.4719066317577,-104.56997136585524z" style="fill:rgb(238,238,238); fill-opacity: 0.4"></path><path d="M-284.2973840027495,-12.703571687527829L-280.29616722779565,-12.200760455091595L-258.6083967711652,-23.981064554024027z" style="fill:rgb(153,221,255); fill-opacity: 0.4"></path><path d="M-284.29738400274954,-12.703571687527818L-284.29738400274954,40.227876451254424M-284.29738400274954,40.227876451254424L-280.29616722779565,40.730687683690654" style="fill:none;stroke:rgb(0,0,0);stroke-width:1;stroke-linecap:round"></path><path d="M-164.0205963598751,66.57552909634683L-189.70958359145942,77.85302196284302L-189.70958359145942,24.92157382406077z" style="fill:rgb(153,221,255); fill-opacity: 0.4"></path><path d="M-292.68669599015686,-116.80690504213884L-292.68669599015686,103.66610290589692M-292.68669599015686,103.66610290589692L-288.68547921520303,104.16891413833316M-282.2967736201713,40.47928114610662L-282.2967736201713,-12.452165152282186M-282.2967736201713,40.47928114610662L-188.71033213362563,17.581901590794594" style="fill:none;stroke:rgb(0,0,0);stroke-width:1;stroke-linecap:round"></path><path d="M-256.6077883836883,-23.72965893780591L-282.29677561527257,-12.452166071309712L-188.7103355117655,17.5819020069044z" style="fill:rgb(255,187,187); fill-opacity: 0.4"></path><path d="M-280.29616722779565,-12.200760455091592L-280.29616722779565,40.730687683690654M-288.68547921520303,-116.30409380970261L-288.68547921520303,104.16891413833316" style="fill:none;stroke:rgb(0,0,0);stroke-width:1;stroke-linecap:round"></path><path d="M-70.80029611643216,128.42585045378115L33.821205295091104,82.49689945177587L33.821205295091104,-133.0728124346062z" style="fill:rgb(238,238,238); fill-opacity: 0.4"></path><path d="M-189.70958359145942,77.85302196284302L-164.0205963598751,66.57552909634683L-25.348985844549603,84.0016390296012zM-284.2973840027495,40.22787645125441L-280.29616722779565,40.73068768369064L-280.29616722779565,-12.200760455091595zM-284.2973840027495,-12.703571687527829L-284.2973840027495,40.22787645125441L-280.29616722779565,-12.200760455091595z" style="fill:rgb(153,221,255); fill-opacity: 0.4"></path><path d="M-189.70958359145942,24.921573824060772L-189.70958359145942,77.853021962843M-189.70958359145942,77.853021962843L-51.03797307613393,95.27913189609738M-284.29738400274954,-12.703571687527818L-280.29616722779565,-12.200760455091592" style="fill:none;stroke:rgb(0,0,0);stroke-width:1;stroke-linecap:round"></path><path d="M-282.29677561527257,-12.452166071309712L-282.29677561527257,40.479282067472525L-188.7103355117655,17.5819020069044z" style="fill:rgb(255,187,187); fill-opacity: 0.4"></path><path d="M-282.2967736201713,-12.452165152282186L-188.71033213362563,17.581901590794594" style="fill:none;stroke:rgb(0,0,0);stroke-width:1;stroke-linecap:round"></path><path d="M278.9663265424161,111.3806433046713L112.56040613477006,90.46931291922417L112.56040613477006,-119.8044239436821zM-70.80029611643216,-87.14386143260089L33.821205295091104,-133.0728124346062L-104.85040522023442,-150.4989223678606z" style="fill:rgb(238,238,238); fill-opacity: 0.4"></path><path d="M278.9663265424161,-98.89309355823498L112.56040613477009,-119.8044239436821M112.56040613477009,-119.8044239436821L10.509177019597962,-75.00382522842692" style="fill:none;stroke:rgb(0,0,0);stroke-width:1;stroke-linecap:round"></path><path d="M-292.68669599015686,103.66610290589692L-288.68547921520303,104.16891413833315L-288.68547921520303,-116.30409380970261z" style="fill:rgb(238,238,238); fill-opacity: 0.4"></path><path d="M249.8602645079975,122.41317134597658L83.45434410035142,101.50184096052945M83.45434410035142,48.570392821747205L83.45434410035142,101.50184096052945M83.45434410035142,101.50184096052945L57.765356868767114,112.77933382702565" style="fill:none;stroke:rgb(0,0,0);stroke-width:1;stroke-linecap:round"></path><path d="M-25.348985844549603,31.070190890818925L-25.348985844549603,84.0016390296012L-164.0205963598751,13.644080957564565z" style="fill:rgb(153,221,255); fill-opacity: 0.4"></path><path d="M-189.70958359145942,24.921573824060772L-51.03797307613393,42.34768375731513" style="fill:none;stroke:rgb(0,0,0);stroke-width:1;stroke-linecap:round"></path><path d="M-70.80029611643216,128.42585045378115L-209.4719066317577,110.9997405205268L33.821205295091104,82.49689945177587z" style="fill:rgb(238,238,238); fill-opacity: 0.4"></path><path d="M-189.70958359145942,24.92157382406077L-51.037973076133916,42.347683757315124L-164.0205963598751,13.644080957564565z" style="fill:rgb(153,221,255); fill-opacity: 0.4"></path><path d="M249.8602645079975,69.48172320719434L83.45434410035142,48.570392821747205M83.45434410035142,48.570392821747205L57.765356868767114,59.84788568824341" style="fill:none;stroke:rgb(0,0,0);stroke-width:1;stroke-linecap:round"></path><path d="M-292.68669599015686,-116.80690504213884L-292.68669599015686,103.66610290589692L-288.68547921520303,-116.30409380970261z" style="fill:rgb(238,238,238); fill-opacity: 0.4"></path><path d="M-25.348987934044676,31.070189838263964L-25.348987934044676,84.00163587373943M-25.348987934044676,84.00163587373943L-51.037975165628986,95.27912874023563M-25.348987934044676,84.00163587373943L42.31492621291972,71.62177053251382M-25.348985844549613,31.07019089081893L-25.348985844549613,84.00163902960117M-25.348985844549613,84.00163902960117L-51.03797307613393,95.27913189609738" style="fill:none;stroke:rgb(0,0,0);stroke-width:1;stroke-linecap:round"></path><path d="M-51.037973076133916,42.347683757315124L-25.348985844549603,31.070190890818925L-164.0205963598751,13.644080957564565z" style="fill:rgb(153,221,255); fill-opacity: 0.4"></path><path d="M-209.4719066317577,-104.56997136585524L-209.4719066317577,110.9997405205268M-209.4719066317577,110.9997405205268L-70.80029611643218,128.42585045378115" style="fill:none;stroke:rgb(0,0,0);stroke-width:1;stroke-linecap:round"></path><path d="M-51.037973076133916,95.2791318960974L-189.70958359145942,77.85302196284302L-25.348985844549603,84.0016390296012zM-189.70958359145942,24.92157382406077L-189.70958359145942,77.85302196284302L-51.037973076133916,42.347683757315124zM83.45434410035139,48.57039282174719L83.45434410035139,101.50184096052944L57.765356868767086,59.8478856882434z" style="fill:rgb(153,221,255); fill-opacity: 0.4"></path><path d="M-25.348987934044676,31.070189838263964L-51.037975165628986,42.34768270476017M-25.348987934044676,31.070189838263964L42.31492621291972,71.62177053251382M-25.348985844549613,31.07019089081893L-51.03797307613393,42.34768375731513M-292.68669599015686,-116.80690504213884L-288.68547921520303,-116.30409380970261" style="fill:none;stroke:rgb(0,0,0);stroke-width:1;stroke-linecap:round"></path><path d="M-209.4719066317577,-104.56997136585524L-70.80029611643216,-87.14386143260089L-104.85040522023442,-150.4989223678606z" style="fill:rgb(238,238,238); fill-opacity: 0.4"></path><path d="M249.86026450799744,122.41317134597655L83.45434410035139,101.50184096052944L83.45434410035139,48.57039282174719z" style="fill:rgb(153,221,255); fill-opacity: 0.4"></path><path d="M278.9663265424161,-98.89309355823498L278.9663265424161,111.3806433046713M278.9663265424161,111.3806433046713L176.915097427244,156.1812420199265" style="fill:none;stroke:rgb(0,0,0);stroke-width:1;stroke-linecap:round"></path><path d="M-25.348987943001806,31.070190627117807L-25.348987943001806,84.00163876590007L-51.03797517458612,95.27913163239627z" style="fill:rgb(255,187,187); fill-opacity: 0.4"></path><path d="M-51.037973076133916,95.2791318960974L-25.348985844549603,84.0016390296012L-25.348985844549603,31.070190890818925zM83.45434410035139,101.50184096052944L57.765356868767086,112.77933382702564L57.765356868767086,59.8478856882434z" style="fill:rgb(153,221,255); fill-opacity: 0.4"></path><path d="M10.509177019597923,135.26991163447937L112.56040613477006,90.46931291922417L278.9663265424161,111.3806433046713zM278.9663265424161,-98.89309355823497L278.9663265424161,111.3806433046713L112.56040613477006,-119.8044239436821zM112.56040613477006,-119.8044239436821L112.56040613477006,90.46931291922417L10.509177019597923,-75.0038252284269z" style="fill:rgb(238,238,238); fill-opacity: 0.4"></path><path d="M-189.70958359145942,77.85302196284302L-51.037973076133916,95.2791318960974L-51.037973076133916,42.347683757315124z" style="fill:rgb(153,221,255); fill-opacity: 0.4"></path><path d="M-25.348987943001806,84.00163876590007L-25.348987943001806,31.070190627117807L42.31492683829317,71.62177180570303z" style="fill:rgb(255,187,187); fill-opacity: 0.4"></path><path d="M57.765356868767086,112.77933382702564L83.45434410035139,101.50184096052944L249.86026450799744,122.41317134597655z" style="fill:rgb(153,221,255); fill-opacity: 0.4"></path><path d="M57.765356868767114,59.84788568824341L57.765356868767114,112.77933382702565M57.765356868767114,112.77933382702565L224.17127727641318,133.6906642124728" style="fill:none;stroke:rgb(0,0,0);stroke-width:1;stroke-linecap:round"></path><path d="M-51.03797517458612,95.27913163239627L-25.348987943001806,84.00163876590007L42.31492683829317,71.62177180570303zM-25.348987943001806,31.070190627117807L-51.03797517458612,95.27913163239627L-51.03797517458612,42.34768349361401z" style="fill:rgb(255,187,187); fill-opacity: 0.4"></path><path d="M-51.037973076133916,42.347683757315124L-51.037973076133916,95.2791318960974L-25.348985844549603,31.070190890818925z" style="fill:rgb(153,221,255); fill-opacity: 0.4"></path><path d="M57.765356868767114,59.84788568824341L224.17127727641318,80.75921607369054M-51.037975165628986,95.27912874023563L-51.037975165628986,42.34768270476017M-51.037975165628986,95.27912874023563L42.31492621291972,71.62177053251382M-51.03797307613393,42.34768375731513L-51.03797307613393,95.27913189609738" style="fill:none;stroke:rgb(0,0,0);stroke-width:1;stroke-linecap:round"></path><path d="M-25.348987943001806,31.070190627117807L-51.03797517458612,42.34768349361401L42.31492683829317,71.62177180570303z" style="fill:rgb(255,187,187); fill-opacity: 0.4"></path><path d="M-70.80029611643216,-87.14386143260089L-70.80029611643216,128.42585045378115L33.821205295091104,-133.0728124346062z" style="fill:rgb(238,238,238); fill-opacity: 0.4"></path><path d="M249.86026450799744,69.48172320719432L249.86026450799744,122.41317134597655L83.45434410035139,48.57039282174719z" style="fill:rgb(153,221,255); fill-opacity: 0.4"></path><path d="M-209.4719066317577,-104.56997136585524L-70.80029611643218,-87.1438614326009" style="fill:none;stroke:rgb(0,0,0);stroke-width:1;stroke-linecap:round"></path><path d="M57.765356868767086,59.8478856882434L224.17127727641318,80.75921607369052L83.45434410035139,48.57039282174719z" style="fill:rgb(153,221,255); fill-opacity: 0.4"></path><path d="M-51.03797517458612,42.34768349361401L-51.03797517458612,95.27913163239627L42.31492683829317,71.62177180570303z" style="fill:rgb(255,187,187); fill-opacity: 0.4"></path><path d="M-51.037975165628986,42.34768270476017L42.31492621291972,71.62177053251382" style="fill:none;stroke:rgb(0,0,0);stroke-width:1;stroke-linecap:round"></path><path d="M-209.4719066317577,-104.56997136585524L-209.4719066317577,110.9997405205268L-70.80029611643216,-87.14386143260089z" style="fill:rgb(238,238,238); fill-opacity: 0.4"></path><path d="M57.765356868767086,59.8478856882434L57.765356868767086,112.77933382702564L224.17127727641318,80.75921607369052z" style="fill:rgb(153,221,255); fill-opacity: 0.4"></path><path d="M278.9663265424161,-98.89309355823498L176.915097427244,-54.09249484297977" style="fill:none;stroke:rgb(0,0,0);stroke-width:1;stroke-linecap:round"></path><path d="M-209.4719066317577,110.9997405205268L-70.80029611643216,128.42585045378115L-70.80029611643216,-87.14386143260089z" style="fill:rgb(238,238,238); fill-opacity: 0.4"></path><path d="M224.17127727641318,80.75921607369052L249.86026450799744,69.48172320719432L83.45434410035139,48.57039282174719z" style="fill:rgb(153,221,255); fill-opacity: 0.4"></path><path d="M249.8602645079975,69.48172320719434L249.8602645079975,122.41317134597658M249.8602645079975,122.41317134597658L224.17127727641318,133.6906642124728M249.86026762632537,69.48172525864601L249.86026762632537,122.41317339742825M249.86026762632537,122.41317339742825L224.17128116033257,133.69066592782897M249.86026762632537,122.41317339742825L315.0608008488827,95.73342914241509" style="fill:none;stroke:rgb(0,0,0);stroke-width:1;stroke-linecap:round"></path><path d="M112.56040613477006,90.46931291922417L10.509177019597923,135.26991163447937L10.509177019597923,-75.0038252284269z" style="fill:rgb(238,238,238); fill-opacity: 0.4"></path><path d="M224.17127727641318,133.69066421247277L57.765356868767086,112.77933382702564L249.86026450799744,122.41317134597655z" style="fill:rgb(153,221,255); fill-opacity: 0.4"></path><path d="M-70.80029611643218,-87.1438614326009L-70.80029611643218,128.42585045378115M249.8602645079975,69.48172320719434L224.17127727641318,80.75921607369054M249.86026762632537,69.48172525864601L224.17128116033257,80.75921778904673M249.86026762632537,69.48172525864601L315.0608008488827,95.73342914241509M514.2676864756065,124.30300229368486L347.8617660679605,103.39167190823774M347.8617660679605,-61.02047029474243L347.8617660679605,103.39167190823774M347.8617660679605,103.39167190823774L268.0683432487723,138.4210698570339" style="fill:none;stroke:rgb(0,0,0);stroke-width:1;stroke-linecap:round"></path><path d="M224.17127727641318,133.69066421247277L249.86026450799744,122.41317134597655L249.86026450799744,69.48172320719432z" style="fill:rgb(153,221,255); fill-opacity: 0.4"></path><path d="M249.8602680952271,69.48172365798203L249.8602680952271,122.41317179676426L224.1712808636428,133.69066466326046z" style="fill:rgb(255,187,187); fill-opacity: 0.4"></path><path d="M57.765356868767086,112.77933382702564L224.17127727641318,133.69066421247277L224.17127727641318,80.75921607369052z" style="fill:rgb(153,221,255); fill-opacity: 0.4"></path><path d="M176.915097427244,156.1812420199265L278.9663265424161,111.3806433046713L278.9663265424161,-98.89309355823497zM176.915097427244,-54.09249484297978L278.9663265424161,-98.89309355823497L112.56040613477006,-119.8044239436821z" style="fill:rgb(238,238,238); fill-opacity: 0.4"></path><path d="M249.8602680952271,122.41317179676426L249.8602680952271,69.48172365798203L315.060800680792,95.73342948445713z" style="fill:rgb(255,187,187); fill-opacity: 0.4"></path><path d="M224.17127727641318,80.75921607369052L224.17127727641318,133.69066421247277L249.86026450799744,69.48172320719432z" style="fill:rgb(153,221,255); fill-opacity: 0.4"></path><path d="M249.8602680952271,69.48172365798203L224.1712808636428,133.69066466326046L224.1712808636428,80.75921652447823z" style="fill:rgb(255,187,187); fill-opacity: 0.4"></path><path d="M176.915097427244,156.1812420199265L10.509177019597923,135.26991163447937L278.9663265424161,111.3806433046713z" style="fill:rgb(238,238,238); fill-opacity: 0.4"></path><path d="M224.1712808636428,133.69066466326046L249.8602680952271,122.41317179676426L315.060800680792,95.73342948445713z" style="fill:rgb(255,187,187); fill-opacity: 0.4"></path><path d="M10.509177019597962,-75.00382522842692L10.509177019597962,135.26991163447937M10.509177019597962,135.26991163447937L176.915097427244,156.1812420199265M224.17127727641318,80.75921607369054L224.17127727641318,133.6906642124728M224.17128116033257,133.69066592782897L224.17128116033257,80.75921778904673M224.17128116033257,133.69066592782897L315.0608008488827,95.73342914241509" style="fill:none;stroke:rgb(0,0,0);stroke-width:1;stroke-linecap:round"></path><path d="M249.8602680952271,69.48172365798203L224.1712808636428,80.75921652447823L315.060800680792,95.73342948445713z" style="fill:rgb(255,187,187); fill-opacity: 0.4"></path><path d="M514.2676864756065,-40.10913990929529L347.8617660679605,-61.02047029474243M347.8617660679605,-61.02047029474243L268.0683432487723,-25.99107234594627" style="fill:none;stroke:rgb(0,0,0);stroke-width:1;stroke-linecap:round"></path><path d="M514.2676864756066,124.30300229368486L347.8617660679605,103.39167190823774L347.8617660679605,-61.02047029474242z" style="fill:rgb(238,238,238); fill-opacity: 0.4"></path><path d="M224.17128116033257,80.75921778904673L315.0608008488827,95.73342914241509" style="fill:none;stroke:rgb(0,0,0);stroke-width:1;stroke-linecap:round"></path><path d="M224.1712808636428,80.75921652447823L224.1712808636428,133.69066466326046L315.060800680792,95.73342948445713z" style="fill:rgb(255,187,187); fill-opacity: 0.4"></path><path d="M10.509177019597923,-75.0038252284269L176.915097427244,-54.09249484297978L112.56040613477006,-119.8044239436821zM347.8617660679605,-61.02047029474242L347.8617660679605,103.39167190823774L268.0683432487723,-25.991072345946264zM268.0683432487723,138.42106985703387L347.8617660679605,103.39167190823774L514.2676864756066,124.30300229368486z" style="fill:rgb(238,238,238); fill-opacity: 0.4"></path><path d="M10.509177019597962,-75.00382522842692L176.915097427244,-54.09249484297977" style="fill:none;stroke:rgb(0,0,0);stroke-width:1;stroke-linecap:round"></path><path d="M514.2676864756066,-40.109139909295294L514.2676864756066,124.30300229368486L347.8617660679605,-61.02047029474242z" style="fill:rgb(238,238,238); fill-opacity: 0.4"></path><path d="M514.2676864756065,-40.10913990929529L514.2676864756065,124.30300229368486M514.2676864756065,124.30300229368486L434.4742636564184,159.33240024248101" style="fill:none;stroke:rgb(0,0,0);stroke-width:1;stroke-linecap:round"></path><path d="M176.915097427244,-54.09249484297978L176.915097427244,156.1812420199265L278.9663265424161,-98.89309355823497zM10.509177019597923,-75.0038252284269L10.509177019597923,135.26991163447937L176.915097427244,-54.09249484297978zM10.509177019597923,135.26991163447937L176.915097427244,156.1812420199265L176.915097427244,-54.09249484297978zM347.8617660679605,103.39167190823774L268.0683432487723,138.42106985703387L268.0683432487723,-25.991072345946264z" style="fill:rgb(238,238,238); fill-opacity: 0.4"></path><path d="M176.915097427244,-54.09249484297977L176.915097427244,156.1812420199265M514.2676864756065,-40.10913990929529L434.4742636564184,-5.07974196049914M268.0683432487723,-25.99107234594627L268.0683432487723,138.4210698570339M268.0683432487723,138.4210698570339L434.4742636564184,159.33240024248101" style="fill:none;stroke:rgb(0,0,0);stroke-width:1;stroke-linecap:round"></path><path d="M434.4742636564184,-5.0797419604991365L514.2676864756066,-40.109139909295294L347.8617660679605,-61.02047029474242zM434.4742636564184,159.33240024248101L514.2676864756066,124.30300229368486L514.2676864756066,-40.109139909295294zM434.4742636564184,159.33240024248101L268.0683432487723,138.42106985703387L514.2676864756066,124.30300229368486z" style="fill:rgb(238,238,238); fill-opacity: 0.4"></path><path d="M627.9264412883706,273.9553040548507L586.3249611864591,268.72747145848894M586.3249611864591,-133.93513043809745L586.3249611864591,268.72747145848894M586.3249611864591,268.72747145848894L564.0671508073206,278.49867401745723" style="fill:none;stroke:rgb(0,0,0);stroke-width:1;stroke-linecap:round"></path><path d="M268.0683432487723,-25.991072345946264L434.4742636564184,-5.0797419604991365L347.8617660679605,-61.02047029474242zM564.0671508073206,278.49867401745723L586.3249611864591,268.72747145848894L627.9264412883706,273.9553040548507z" style="fill:rgb(238,238,238); fill-opacity: 0.4"></path><path d="M627.9264412883706,-128.70729784173568L627.9264412883706,273.9553040548507M627.9264412883706,273.9553040548507L605.668630909232,283.726506613819M268.0683432487723,-25.99107234594627L434.4742636564184,-5.07974196049914M499.1729363759591,62.72835826069463L544.5200598254361,68.42688556163853" style="fill:none;stroke:rgb(0,0,0);stroke-width:1;stroke-linecap:round"></path><path d="M268.0683432487723,-25.991072345946264L268.0683432487723,138.42106985703387L434.4742636564184,-5.0797419604991365zM627.9264412883706,273.9553040548507L586.3249611864591,268.72747145848894L586.3249611864591,-133.93513043809747z" style="fill:rgb(238,238,238); fill-opacity: 0.4"></path><path d="M564.0671508073206,-124.16392787912918L564.0671508073206,278.49867401745723M564.0671508073206,278.49867401745723L605.668630909232,283.726506613819" style="fill:none;stroke:rgb(0,0,0);stroke-width:1;stroke-linecap:round"></path><path d="M605.668630909232,283.726506613819L564.0671508073206,278.49867401745723L627.9264412883706,273.9553040548507zM434.4742636564184,-5.0797419604991365L434.4742636564184,159.33240024248101L514.2676864756066,-40.109139909295294zM268.0683432487723,138.42106985703387L434.4742636564184,159.33240024248101L434.4742636564184,-5.0797419604991365z" style="fill:rgb(238,238,238); fill-opacity: 0.4"></path><path d="M547.665811414545,58.12455526753474L541.3743082363272,60.886531890912586L571.1948383251284,71.7789604445467z" style="fill:rgb(0,0,0)"></path><path d="M586.3249611864591,268.72747145848894L564.0671508073206,278.49867401745723L564.0671508073206,-124.16392787912919z" style="fill:rgb(238,238,238); fill-opacity: 0.4"></path><path d="M539.4301266352502,74.06902114326854L544.5200598254361,79.45427059055149L571.1948383251284,71.7789604445467z" style="fill:rgb(0,0,0)"></path><path d="M605.668630909232,-118.9360952827674L605.668630909232,283.726506613819" style="fill:none;stroke:rgb(0,0,0);stroke-width:1;stroke-linecap:round"></path><path d="M541.3743082363272,60.886531890912586L539.4301266352502,74.06902114326854L571.1948383251284,71.7789604445467z" style="fill:rgb(0,0,0)"></path><path d="M605.668630909232,283.726506613819L627.9264412883706,273.9553040548507L627.9264412883706,-128.70729784173568z" style="fill:rgb(238,238,238); fill-opacity: 0.4"></path><path d="M434.4742636564184,-5.07974196049914L434.4742636564184,159.33240024248101" style="fill:none;stroke:rgb(0,0,0);stroke-width:1;stroke-linecap:round"></path><path d="M586.3249611864591,-133.93513043809747L586.3249611864591,268.72747145848894L564.0671508073206,-124.16392787912919zM627.9264412883706,-128.70729784173568L627.9264412883706,273.9553040548507L586.3249611864591,-133.93513043809747z" style="fill:rgb(238,238,238); fill-opacity: 0.4"></path><path d="M749.552258682974,194.9184705521376L707.9507785810625,189.6906379557758M707.9507785810625,-24.330181994423935L707.9507785810625,189.6906379557758M707.9507785810625,189.6906379557758L685.692968201924,199.46184051474407" style="fill:none;stroke:rgb(0,0,0);stroke-width:1;stroke-linecap:round"></path><path d="M564.0671508073206,278.49867401745723L605.668630909232,283.726506613819L605.668630909232,-118.93609528276741z" style="fill:rgb(238,238,238); fill-opacity: 0.4"></path><path d="M620.7987537705626,78.01241573117483L666.1458772200397,83.71094303211872M627.9264412883706,-128.70729784173568L586.3249611864591,-133.93513043809745M586.3249611864591,-133.93513043809745L564.0671508073206,-124.16392787912918" style="fill:none;stroke:rgb(0,0,0);stroke-width:1;stroke-linecap:round"></path><path d="M685.692968201924,199.46184051474404L707.9507785810625,189.69063795577577L749.552258682974,194.91847055213756z" style="fill:rgb(238,238,238); fill-opacity: 0.4"></path><path d="M749.552258682974,-19.102349398062156L749.552258682974,194.9184705521376M749.552258682974,194.9184705521376L727.2944483038355,204.68967311110586" style="fill:none;stroke:rgb(0,0,0);stroke-width:1;stroke-linecap:round"></path><path d="M749.552258682974,194.91847055213756L707.9507785810625,189.69063795577577L707.9507785810625,-24.330181994423935zM564.0671508073206,-124.16392787912919L564.0671508073206,278.49867401745723L605.668630909232,-118.93609528276741zM605.668630909232,-118.93609528276741L605.668630909232,283.726506613819L627.9264412883706,-128.70729784173568z" style="fill:rgb(238,238,238); fill-opacity: 0.4"></path><path d="M627.9264412883706,-128.70729784173568L605.668630909232,-118.9360952827674" style="fill:none;stroke:rgb(0,0,0);stroke-width:1;stroke-linecap:round"></path><path d="M669.2916288091485,73.40861273801495L663.0001256309308,76.17058936139279L692.820655719732,87.0630179150269zM661.0559440298537,89.35307861374875L666.1458772200397,94.73832806103168L692.820655719732,87.0630179150269z" style="fill:rgb(0,0,0)"></path><path d="M605.668630909232,-118.93609528276741L627.9264412883706,-128.70729784173568L586.3249611864591,-133.93513043809747z" style="fill:rgb(238,238,238); fill-opacity: 0.4"></path><path d="M663.0001256309308,76.17058936139279L661.0559440298537,89.35307861374875L692.820655719732,87.0630179150269z" style="fill:rgb(0,0,0)"></path><path d="M685.692968201924,-14.558979435455655L685.692968201924,199.46184051474407M685.692968201924,199.46184051474407L727.2944483038355,204.68967311110586" style="fill:none;stroke:rgb(0,0,0);stroke-width:1;stroke-linecap:round"></path><path d="M727.2944483038355,204.68967311110583L685.692968201924,199.46184051474404L749.552258682974,194.91847055213756zM707.9507785810625,189.69063795577577L685.692968201924,199.46184051474404L685.692968201924,-14.558979435455658zM564.0671508073206,-124.16392787912919L605.668630909232,-118.93609528276741L586.3249611864591,-133.93513043809747zM707.9507785810625,-24.330181994423935L707.9507785810625,189.69063795577577L685.692968201924,-14.558979435455658zM749.552258682974,-19.10234939806216L749.552258682974,194.91847055213756L707.9507785810625,-24.330181994423935z" style="fill:rgb(238,238,238); fill-opacity: 0.4"></path><path d="M564.0671508073206,-124.16392787912918L605.668630909232,-118.9360952827674M749.552258682974,-19.102349398062156L707.9507785810625,-24.330181994423935M707.9507785810625,-24.330181994423935L685.692968201924,-14.558979435455655" style="fill:none;stroke:rgb(0,0,0);stroke-width:1;stroke-linecap:round"></path><path d="M727.2944483038355,204.68967311110583L749.552258682974,194.91847055213756L749.552258682974,-19.10234939806216z" style="fill:rgb(238,238,238); fill-opacity: 0.4"></path><path d="M727.2944483038355,-9.331146839093876L727.2944483038355,204.68967311110586M742.424571165166,93.296473201655L787.7716946146429,98.99500050259891" style="fill:none;stroke:rgb(0,0,0);stroke-width:1;stroke-linecap:round"></path><path d="M685.692968201924,199.46184051474404L727.2944483038355,204.68967311110583L727.2944483038355,-9.33114683909388z" style="fill:rgb(238,238,238); fill-opacity: 0.4"></path><path d="M749.552258682974,-19.102349398062156L727.2944483038355,-9.331146839093876M871.1780760775774,153.97510141398345L829.576595975666,148.74726881762166M829.576595975666,47.181302084690564L829.576595975666,148.74726881762166M829.576595975666,148.74726881762166L807.3187855965274,158.51847137658996" style="fill:none;stroke:rgb(0,0,0);stroke-width:1;stroke-linecap:round"></path><path d="M727.2944483038355,-9.33114683909388L749.552258682974,-19.10234939806216L707.9507785810625,-24.330181994423935zM685.692968201924,-14.558979435455658L685.692968201924,199.46184051474404L727.2944483038355,-9.33114683909388zM727.2944483038355,-9.33114683909388L727.2944483038355,204.68967311110583L749.552258682974,-19.10234939806216zM685.692968201924,-14.558979435455658L727.2944483038355,-9.33114683909388L707.9507785810625,-24.330181994423935z" style="fill:rgb(238,238,238); fill-opacity: 0.4"></path><path d="M685.692968201924,-14.558979435455655L727.2944483038355,-9.331146839093876" style="fill:none;stroke:rgb(0,0,0);stroke-width:1;stroke-linecap:round"></path><path d="M871.1780760775774,153.97510141398345L829.576595975666,148.74726881762163L829.576595975666,47.18130208469056zM807.3187855965274,158.51847137658993L829.576595975666,148.74726881762163L871.1780760775774,153.97510141398345z" style="fill:rgb(238,238,238); fill-opacity: 0.4"></path><path d="M871.1780760775774,52.40913468105234L871.1780760775774,153.97510141398345M871.1780760775774,153.97510141398345L848.9202656984388,163.74630397295172" style="fill:none;stroke:rgb(0,0,0);stroke-width:1;stroke-linecap:round"></path><path d="M790.9174462037519,88.69267020849514L784.6259430255341,91.45464683187298L814.4464731143353,102.34707538550708zM782.681761424457,104.63713608422893L787.7716946146429,110.02238553151187L814.4464731143353,102.34707538550708z" style="fill:rgb(0,0,0)"></path><path d="M871.1780760775774,52.40913468105234L829.576595975666,47.181302084690564M829.576595975666,47.181302084690564L807.3187855965274,56.95250464365884" style="fill:none;stroke:rgb(0,0,0);stroke-width:1;stroke-linecap:round"></path><path d="M784.6259430255341,91.45464683187298L782.681761424457,104.63713608422893L814.4464731143353,102.34707538550708z" style="fill:rgb(0,0,0)"></path><path d="M829.576595975666,47.18130208469056L829.576595975666,148.74726881762163L807.3187855965274,56.952504643658834zM871.1780760775774,52.40913468105235L871.1780760775774,153.97510141398345L829.576595975666,47.18130208469056zM829.576595975666,148.74726881762163L807.3187855965274,158.51847137658993L807.3187855965274,56.952504643658834z" style="fill:rgb(238,238,238); fill-opacity: 0.4"></path><path d="M807.3187855965274,56.95250464365884L807.3187855965274,158.51847137658996M807.3187855965274,158.51847137658996L848.9202656984388,163.74630397295172" style="fill:none;stroke:rgb(0,0,0);stroke-width:1;stroke-linecap:round"></path><path d="M848.9202656984388,163.74630397295172L807.3187855965274,158.51847137658993L871.1780760775774,153.97510141398345zM848.9202656984388,163.74630397295172L871.1780760775774,153.97510141398345L871.1780760775774,52.40913468105235z" style="fill:rgb(238,238,238); fill-opacity: 0.4"></path><path d="M871.1780760775774,52.40913468105234L848.9202656984388,62.18033724002062" style="fill:none;stroke:rgb(0,0,0);stroke-width:1;stroke-linecap:round"></path><path d="M848.9202656984388,62.180337240020634L871.1780760775774,52.40913468105235L829.576595975666,47.18130208469056zM807.3187855965274,56.952504643658834L848.9202656984388,62.180337240020634L829.576595975666,47.18130208469056z" style="fill:rgb(238,238,238); fill-opacity: 0.4"></path><path d="M848.9202656984388,62.18033724002062L848.9202656984388,163.74630397295172" style="fill:none;stroke:rgb(0,0,0);stroke-width:1;stroke-linecap:round"></path><path d="M807.3187855965274,158.51847137658993L848.9202656984388,163.74630397295172L848.9202656984388,62.180337240020634zM807.3187855965274,56.952504643658834L807.3187855965274,158.51847137658993L848.9202656984388,62.180337240020634zM848.9202656984388,62.180337240020634L848.9202656984388,163.74630397295172L871.1780760775774,52.40913468105235z" style="fill:rgb(238,238,238); fill-opacity: 0.4"></path><path d="M807.3187855965274,56.95250464365884L848.9202656984388,62.18033724002062" style="fill:none;stroke:rgb(0,0,0);stroke-width:1;stroke-linecap:round"></path></svg>