<svg viewBox="-960 -459.5 1920 919" width="1920" height="919" style="background-color: rgb(255, 255, 255);" xmlns="http://www.w3.org/2000/svg"><path d="M-311.2560158206551,-36.16331190519937L-314.710290116084,-37.016777458688M-314.71029011608397,-207.9672338480139L-314.710290116084,-37.016777458688M-314.710290116084,-37.016777458688L-404.19812061995634,45.287922048782775M-311.2560158206551,-207.11376829452524L-311.2560158206551,-36.16331190519937M-311.2560158206551,-36.16331190519937L-400.74384632452745,46.141387602271415" style="fill:none;stroke:rgb(0,0,0);stroke-width:1;stroke-linecap:round"></path><path d="M-311.256015820655,-36.163311905199365L-314.7102901160839,-37.01677745868799L-314.7102901160839,-207.9672338480139z" style="fill:rgb(238,238,238); fill-opacity: 0.4"></path><path d="M-125.17674068889517,9.072392875683533L-244.8927687499705,-20.506470124806437M-244.8927687499705,-187.655006690236L-244.8927687499705,-20.506470124806437M-244.8927687499705,-20.506470124806437L-332.39039949669626,59.96778168883286" style="fill:none;stroke:rgb(0,0,0);stroke-width:1;stroke-linecap:round"></path><path d="M-404.1981206199563,45.28792204878278L-314.7102901160839,-37.01677745868799L-311.256015820655,-36.163311905199365zM-311.256015820655,-207.11376829452524L-311.256015820655,-36.163311905199365L-314.7102901160839,-207.9672338480139zM-400.7438463245274,46.141387602271415L-311.256015820655,-36.163311905199365L-311.256015820655,-207.11376829452524zM-125.17674068889517,9.072392875683542L-244.8927687499705,-20.50647012480643L-244.8927687499705,-187.655006690236z" style="fill:rgb(238,238,238); fill-opacity: 0.4"></path><path d="M-125.17674068889517,-158.07614368974606L-125.17674068889517,9.072392875683533M-125.17674068889517,9.072392875683533L-212.6743714356209,89.54664468932282M-333.20112996509084,-113.86940183174742L-336.6554042605198,-114.72286738523606M-336.6554042605198,-155.76487656762757L-336.6554042605198,-114.72286738523606M-336.6554042605198,-114.72286738523606L-358.1397596628114,-94.96304746848439M-334.9282650419452,-155.3381428255333L-334.9282650419452,-114.29613445857328M-334.9282650419452,-114.29613445857328L-356.4126207643787,-94.53631424737733M-334.9282650419452,-114.29613445857328L-276.85309569024326,-106.88881917552122M-333.20112996509084,-154.91141101413896L-333.20112996509084,-113.86940183174742M-333.20112996509084,-113.86940183174742L-354.68548536738246,-94.10958191499576M-311.2560158206551,-207.11376829452524L-314.71029011608397,-207.9672338480139M-314.71029011608397,-207.9672338480139L-404.19812061995634,-125.66253434054312M-311.2560158206551,-207.11376829452524L-400.7438463245274,-124.8090687870545" style="fill:none;stroke:rgb(0,0,0);stroke-width:1;stroke-linecap:round"></path><path d="M-333.2011299650908,-113.86940183174742L-336.65540426051973,-114.72286738523603L-336.65540426051973,-155.76487656762757z" style="fill:rgb(153,221,255); fill-opacity: 0.4"></path><path d="M-400.7438463245274,46.141387602271415L-404.1981206199563,45.28792204878278L-311.256015820655,-36.163311905199365zM-332.3903994966963,59.96778168883286L-244.8927687499705,-20.50647012480643L-125.17674068889517,9.072392875683542z" style="fill:rgb(238,238,238); fill-opacity: 0.4"></path><path d="M-358.13975966281134,-94.96304746848438L-336.65540426051973,-114.72286738523603L-333.2011299650908,-113.86940183174742zM-333.2011299650908,-154.91141101413893L-333.2011299650908,-113.86940183174742L-336.65540426051973,-155.76487656762757z" style="fill:rgb(153,221,255); fill-opacity: 0.4"></path><path d="M-334.9282671128053,-155.33814379088327L-334.9282671128053,-114.29613460849174L-356.41262251509687,-94.53631469174006z" style="fill:rgb(255,187,187); fill-opacity: 0.4"></path><path d="M-354.68548536738246,-94.10958191499574L-333.2011299650908,-113.86940183174742L-333.2011299650908,-154.91141101413893z" style="fill:rgb(153,221,255); fill-opacity: 0.4"></path><path d="M-314.7102901160839,-207.9672338480139L-314.7102901160839,-37.01677745868799L-404.1981206199563,-125.66253434054312z" style="fill:rgb(238,238,238); fill-opacity: 0.4"></path><path d="M-333.20112996509084,-154.91141101413896L-336.6554042605198,-155.76487656762757M-336.6554042605198,-155.76487656762757L-358.1397596628114,-136.0050566508759M-334.9282650419452,-155.3381428255333L-356.4126207643787,-135.5783226143374M-334.9282650419452,-155.3381428255333L-276.85309569024326,-106.88881917552122M-333.20112996509084,-154.91141101413896L-354.68548536738246,-135.15159109738727" style="fill:none;stroke:rgb(0,0,0);stroke-width:1;stroke-linecap:round"></path><path d="M-354.68548536738246,-94.10958191499574L-358.13975966281134,-94.96304746848438L-333.2011299650908,-113.86940183174742z" style="fill:rgb(153,221,255); fill-opacity: 0.4"></path><path d="M-148.68751783865798,-46.760981374832696L-268.40354589973333,-76.33984437532267M-268.40354589973333,-117.38185355771418L-268.40354589973333,-76.33984437532267M-268.40354589973333,-76.33984437532267L-289.8879013020249,-56.580024458571" style="fill:none;stroke:rgb(0,0,0);stroke-width:1;stroke-linecap:round"></path><path d="M-336.65540426051973,-155.76487656762757L-336.65540426051973,-114.72286738523603L-358.13975966281134,-136.00505665087587z" style="fill:rgb(153,221,255); fill-opacity: 0.4"></path><path d="M-334.9282671128053,-114.29613460849174L-334.9282671128053,-155.33814379088327L-276.8530972831154,-106.88882098769275z" style="fill:rgb(255,187,187); fill-opacity: 0.4"></path><path d="M-336.65540426051973,-114.72286738523603L-358.13975966281134,-94.96304746848438L-358.13975966281134,-136.00505665087587z" style="fill:rgb(153,221,255); fill-opacity: 0.4"></path><path d="M-356.41262251509687,-94.53631469174006L-334.9282671128053,-114.29613460849174L-276.8530972831154,-106.88882098769275z" style="fill:rgb(255,187,187); fill-opacity: 0.4"></path><path d="M-125.17674068889517,-158.07614368974606L-244.8927687499705,-187.655006690236M-244.8927687499705,-187.655006690236L-332.39039949669626,-107.18075487659674" style="fill:none;stroke:rgb(0,0,0);stroke-width:1;stroke-linecap:round"></path><path d="M-354.68548536738246,-135.15159109738727L-333.2011299650908,-154.91141101413893L-336.65540426051973,-155.76487656762757z" style="fill:rgb(153,221,255); fill-opacity: 0.4"></path><path d="M-358.1397596628114,-136.0050566508759L-358.1397596628114,-94.96304746848439M-358.1397596628114,-94.96304746848439L-354.68548536738246,-94.10958191499576M-356.4126207643787,-94.53631424737733L-356.4126207643787,-135.5783226143374M-356.4126207643787,-94.53631424737733L-276.85309569024326,-106.88881917552122M-354.68548536738246,-135.15159109738727L-354.68548536738246,-94.10958191499576" style="fill:none;stroke:rgb(0,0,0);stroke-width:1;stroke-linecap:round"></path><path d="M-334.9282671128053,-155.33814379088327L-356.41262251509687,-94.53631469174006L-356.41262251509687,-135.5783238741316z" style="fill:rgb(255,187,187); fill-opacity: 0.4"></path><path d="M-354.68548536738246,-135.15159109738727L-354.68548536738246,-94.10958191499574L-333.2011299650908,-154.91141101413893z" style="fill:rgb(153,221,255); fill-opacity: 0.4"></path><path d="M-125.17674068889517,-158.07614368974606L-125.17674068889517,9.072392875683542L-244.8927687499705,-187.655006690236zM-314.7102901160839,-37.01677745868799L-404.1981206199563,45.28792204878278L-404.1981206199563,-125.66253434054312z" style="fill:rgb(238,238,238); fill-opacity: 0.4"></path><path d="M-358.13975966281134,-94.96304746848438L-354.68548536738246,-94.10958191499574L-354.68548536738246,-135.15159109738727zM-358.13975966281134,-136.00505665087587L-354.68548536738246,-135.15159109738727L-336.65540426051973,-155.76487656762757z" style="fill:rgb(153,221,255); fill-opacity: 0.4"></path><path d="M-334.9282671128053,-155.33814379088327L-356.41262251509687,-135.5783238741316L-276.8530972831154,-106.88882098769275z" style="fill:rgb(255,187,187); fill-opacity: 0.4"></path><path d="M-148.68751783865798,-87.80299055722419L-268.40354589973333,-117.38185355771418M-268.40354589973333,-117.38185355771418L-289.8879013020249,-97.6220336409625" style="fill:none;stroke:rgb(0,0,0);stroke-width:1;stroke-linecap:round"></path><path d="M-358.13975966281134,-136.00505665087587L-358.13975966281134,-94.96304746848438L-354.68548536738246,-135.15159109738727zM-148.68751783865798,-46.760981374832696L-268.40354589973333,-76.33984437532267L-268.40354589973333,-117.38185355771418z" style="fill:rgb(153,221,255); fill-opacity: 0.4"></path><path d="M-356.41262251509687,-135.5783238741316L-356.41262251509687,-94.53631469174006L-276.8530972831154,-106.88882098769275z" style="fill:rgb(255,187,187); fill-opacity: 0.4"></path><path d="M-268.40354589973333,-117.38185355771418L-268.40354589973333,-76.33984437532267L-289.8879013020249,-97.6220336409625z" style="fill:rgb(153,221,255); fill-opacity: 0.4"></path><path d="M-400.7438463245274,-124.80906878705447L-311.256015820655,-207.11376829452524L-314.7102901160839,-207.9672338480139zM-244.8927687499705,-187.655006690236L-244.8927687499705,-20.50647012480643L-332.3903994966963,-107.18075487659674z" style="fill:rgb(238,238,238); fill-opacity: 0.4"></path><path d="M54.31738061812471,46.50075882837494L-65.3986474429506,16.921895827884978M-65.3986474429506,-114.66644456062974L-65.3986474429506,16.921895827884978M-65.3986474429506,16.921895827884978L-134.28150011083346,80.27556590933982" style="fill:none;stroke:rgb(0,0,0);stroke-width:1;stroke-linecap:round"></path><path d="M-289.8879013020249,-56.58002445857099L-268.40354589973333,-76.33984437532267L-148.68751783865798,-46.760981374832696zM-268.40354589973333,-76.33984437532267L-289.8879013020249,-56.58002445857099L-289.8879013020249,-97.6220336409625z" style="fill:rgb(153,221,255); fill-opacity: 0.4"></path><path d="M-358.1397596628114,-136.0050566508759L-354.68548536738246,-135.15159109738727M-356.4126207643787,-135.5783226143374L-276.85309569024326,-106.88881917552122M-404.19812061995634,-125.66253434054312L-404.19812061995634,45.287922048782775M-404.19812061995634,45.287922048782775L-400.74384632452745,46.141387602271415M-289.8879013020249,-97.6220336409625L-289.8879013020249,-56.580024458571M-289.8879013020249,-56.580024458571L-170.17187324094957,-27.001161458081025M-400.7438463245274,-124.8090687870545L-400.74384632452745,46.141387602271415" style="fill:none;stroke:rgb(0,0,0);stroke-width:1;stroke-linecap:round"></path><path d="M-244.8927687499705,-20.50647012480643L-332.3903994966963,59.96778168883286L-332.3903994966963,-107.18075487659674zM-400.7438463245274,-124.80906878705447L-400.7438463245274,46.141387602271415L-311.256015820655,-207.11376829452524z" style="fill:rgb(238,238,238); fill-opacity: 0.4"></path><path d="M-148.68751783865798,-87.8029905572242L-148.68751783865798,-46.760981374832696L-268.40354589973333,-117.38185355771418z" style="fill:rgb(153,221,255); fill-opacity: 0.4"></path><path d="M-212.6743714356209,89.54664468932282L-125.17674068889517,9.072392875683542L-125.17674068889517,-158.07614368974606zM-212.6743714356209,89.54664468932282L-332.3903994966963,59.96778168883286L-125.17674068889517,9.072392875683542z" style="fill:rgb(238,238,238); fill-opacity: 0.4"></path><path d="M-148.68752018651085,-87.8029925602745L-148.68752018651085,-46.76098297016727M-148.68752018651085,-46.76098297016727L-170.17187633580008,-27.001162366378992M-148.68752018651085,-46.76098297016727L-92.36441805118179,-35.410390146385645M-148.68751783865798,-87.80299055722419L-148.68751783865798,-46.760981374832696M-148.68751783865798,-46.760981374832696L-170.17187324094957,-27.001161458081025M-289.8879013020249,-97.6220336409625L-170.17187324094957,-68.04317064047252" style="fill:none;stroke:rgb(0,0,0);stroke-width:1;stroke-linecap:round"></path><path d="M-170.17187324094957,-27.001161458081025L-289.8879013020249,-56.58002445857099L-148.68751783865798,-46.760981374832696z" style="fill:rgb(153,221,255); fill-opacity: 0.4"></path><path d="M-125.17674068889517,-158.07614368974606L-212.67437143562088,-77.60189187610678" style="fill:none;stroke:rgb(0,0,0);stroke-width:1;stroke-linecap:round"></path><path d="M-289.8879013020249,-97.6220336409625L-170.17187324094957,-68.04317064047252L-268.40354589973333,-117.38185355771418z" style="fill:rgb(153,221,255); fill-opacity: 0.4"></path><path d="M-332.39039949669626,-107.18075487659674L-332.39039949669626,59.96778168883286M-332.39039949669626,59.96778168883286L-212.6743714356209,89.54664468932282" style="fill:none;stroke:rgb(0,0,0);stroke-width:1;stroke-linecap:round"></path><path d="M-404.1981206199563,45.28792204878278L-400.7438463245274,46.141387602271415L-400.7438463245274,-124.80906878705447z" style="fill:rgb(238,238,238); fill-opacity: 0.4"></path><path d="M-289.8879013020249,-97.6220336409625L-289.8879013020249,-56.58002445857099L-170.17187324094957,-68.04317064047252zM-170.17187324094957,-68.04317064047252L-148.68751783865798,-87.8029905572242L-268.40354589973333,-117.38185355771418z" style="fill:rgb(153,221,255); fill-opacity: 0.4"></path><path d="M54.3173806181247,46.500758828374934L-65.39864744295062,16.921895827884974L-65.3986474429506,-114.66644456062976z" style="fill:rgb(238,238,238); fill-opacity: 0.4"></path><path d="M-148.68751965026428,-87.8029910048272L-148.68751965026428,-46.760981822435696L-170.1718750525559,-27.001161905684036z" style="fill:rgb(255,187,187); fill-opacity: 0.4"></path><path d="M-170.17187324094957,-27.001161458081025L-148.68751783865798,-46.760981374832696L-148.68751783865798,-87.8029905572242z" style="fill:rgb(153,221,255); fill-opacity: 0.4"></path><path d="M31.794174189239023,54.96684033248952L-87.92185387183632,25.387977331999547M-87.92185387183632,-1.9733621229281224L-87.92185387183632,25.387977331999547M-87.92185387183632,25.387977331999547L-102.24475747336402,38.561190609834M-148.68752018651085,-87.8029925602745L-170.17187633580008,-68.04317195648622M-148.68752018651085,-87.8029925602745L-92.36441805118179,-35.410390146385645M-148.68751783865798,-87.80299055722419L-170.17187324094957,-68.04317064047252" style="fill:none;stroke:rgb(0,0,0);stroke-width:1;stroke-linecap:round"></path><path d="M-404.1981206199563,-125.66253434054312L-400.7438463245274,-124.80906878705447L-314.7102901160839,-207.9672338480139z" style="fill:rgb(238,238,238); fill-opacity: 0.4"></path><path d="M-289.8879013020249,-56.58002445857099L-170.17187324094957,-27.001161458081025L-170.17187324094957,-68.04317064047252z" style="fill:rgb(153,221,255); fill-opacity: 0.4"></path><path d="M-148.68751965026428,-46.760981822435696L-148.68751965026428,-87.8029910048272L-92.36441829407678,-35.41039048124928z" style="fill:rgb(255,187,187); fill-opacity: 0.4"></path><path d="M54.31738061812472,-85.0875815601398L54.31738061812471,46.50075882837494M54.31738061812471,46.50075882837494L-14.565472049758153,109.85442890982976" style="fill:none;stroke:rgb(0,0,0);stroke-width:1;stroke-linecap:round"></path><path d="M-134.28150011083346,80.2755659093398L-65.39864744295062,16.921895827884974L54.3173806181247,46.500758828374934z" style="fill:rgb(238,238,238); fill-opacity: 0.4"></path><path d="M-170.1718750525559,-27.001161905684036L-148.68751965026428,-46.760981822435696L-92.36441829407678,-35.41039048124928z" style="fill:rgb(255,187,187); fill-opacity: 0.4"></path><path d="M31.794174189239023,27.60550087756185L-87.92185387183632,-1.9733621229281224M-87.92185387183632,-1.9733621229281224L-102.24475747336402,11.199851154906323M-170.17187633580008,-27.001162366378992L-170.17187633580008,-68.04317195648622M-170.17187633580008,-27.001162366378992L-92.36441805118179,-35.410390146385645M-170.17187324094957,-68.04317064047252L-170.17187324094957,-27.001161458081025" style="fill:none;stroke:rgb(0,0,0);stroke-width:1;stroke-linecap:round"></path><path d="M-87.92185387183632,-1.9733621229281146L-87.92185387183632,25.387977331999558L-102.24475747336402,11.199851154906327z" style="fill:rgb(153,221,255); fill-opacity: 0.4"></path><path d="M-148.68751965026428,-87.8029910048272L-170.1718750525559,-27.001161905684036L-170.1718750525559,-68.04317108807555z" style="fill:rgb(255,187,187); fill-opacity: 0.4"></path><path d="M-170.17187324094957,-68.04317064047252L-170.17187324094957,-27.001161458081025L-148.68751783865798,-87.8029905572242z" style="fill:rgb(153,221,255); fill-opacity: 0.4"></path><path d="M-212.67437143562088,-77.60189187610678L-125.17674068889517,-158.07614368974606L-244.8927687499705,-187.655006690236z" style="fill:rgb(238,238,238); fill-opacity: 0.4"></path><path d="M-87.92185387183632,25.387977331999558L-102.24475747336402,38.56119060983401L-102.24475747336402,11.199851154906327z" style="fill:rgb(153,221,255); fill-opacity: 0.4"></path><path d="M-404.1981206199563,-125.66253434054312L-404.1981206199563,45.28792204878278L-400.7438463245274,-124.80906878705447z" style="fill:rgb(238,238,238); fill-opacity: 0.4"></path><path d="M31.79417418923903,54.96684033248952L-87.92185387183632,25.387977331999558L-87.92185387183632,-1.9733621229281146z" style="fill:rgb(153,221,255); fill-opacity: 0.4"></path><path d="M-102.24475747336402,11.199851154906323L-102.24475747336402,38.561190609834M-102.24475747336402,38.561190609834L17.471270587711295,68.14005361032397" style="fill:none;stroke:rgb(0,0,0);stroke-width:1;stroke-linecap:round"></path><path d="M-102.24475747336402,38.56119060983401L-87.92185387183632,25.387977331999558L31.79417418923903,54.96684033248952z" style="fill:rgb(153,221,255); fill-opacity: 0.4"></path><path d="M54.31738061812472,-85.0875815601398L-65.3986474429506,-114.66644456062974M-65.3986474429506,-114.66644456062974L-134.28150011083346,-51.312774479174934" style="fill:none;stroke:rgb(0,0,0);stroke-width:1;stroke-linecap:round"></path><path d="M-148.68751965026428,-87.8029910048272L-170.1718750525559,-68.04317108807555L-92.36441829407678,-35.41039048124928zM-170.1718750525559,-68.04317108807555L-170.1718750525559,-27.001161905684036L-92.36441829407678,-35.41039048124928z" style="fill:rgb(255,187,187); fill-opacity: 0.4"></path><path d="M-170.17187633580008,-68.04317195648622L-92.36441805118179,-35.410390146385645" style="fill:none;stroke:rgb(0,0,0);stroke-width:1;stroke-linecap:round"></path><path d="M54.31738061812473,-85.0875815601398L54.3173806181247,46.500758828374934L-65.3986474429506,-114.66644456062976z" style="fill:rgb(238,238,238); fill-opacity: 0.4"></path><path d="M-102.24475747336402,11.199851154906323L17.471270587711295,40.778714155396294" style="fill:none;stroke:rgb(0,0,0);stroke-width:1;stroke-linecap:round"></path><path d="M-65.3986474429506,-114.66644456062976L-65.39864744295062,16.921895827884974L-134.28150011083346,-51.31277447917493z" style="fill:rgb(238,238,238); fill-opacity: 0.4"></path><path d="M31.79417418923903,27.60550087756186L31.79417418923903,54.96684033248952L-87.92185387183632,-1.9733621229281146z" style="fill:rgb(153,221,255); fill-opacity: 0.4"></path><path d="M-212.67437143562088,-77.60189187610678L-212.6743714356209,89.54664468932282M264.8189364449634,96.84265662483182L121.15971331328159,61.34802362881403M121.15971331328159,-61.670027746233245L121.15971331328159,61.34802362881403M121.15971331328159,61.34802362881403L56.763169642782955,120.57549787058545" style="fill:none;stroke:rgb(0,0,0);stroke-width:1;stroke-linecap:round"></path><path d="M-102.24475747336402,11.199851154906327L17.471270587711302,40.7787141553963L-87.92185387183632,-1.9733621229281146z" style="fill:rgb(153,221,255); fill-opacity: 0.4"></path><path d="M-332.3903994966963,-107.18075487659674L-212.67437143562088,-77.60189187610678L-244.8927687499705,-187.655006690236z" style="fill:rgb(238,238,238); fill-opacity: 0.4"></path><path d="M-102.24475747336402,11.199851154906327L-102.24475747336402,38.56119060983401L17.471270587711302,40.7787141553963zM17.471270587711302,68.14005361032397L-102.24475747336402,38.56119060983401L31.79417418923903,54.96684033248952z" style="fill:rgb(153,221,255); fill-opacity: 0.4"></path><path d="M-404.19812061995634,-125.66253434054312L-400.7438463245274,-124.8090687870545M31.794174189239023,27.60550087756185L31.794174189239023,54.96684033248952M31.794174189239023,54.96684033248952L17.471270587711295,68.14005361032397M31.794174886147694,27.605501419166497L31.794174886147694,54.96683924323124M31.794174886147694,54.96683924323124L17.471271071192078,68.14005271736187M31.794174886147694,54.96683924323124L93.40839602172085,62.630680467904874" style="fill:none;stroke:rgb(0,0,0);stroke-width:1;stroke-linecap:round"></path><path d="M-65.39864744295062,16.921895827884974L-134.28150011083346,80.2755659093398L-134.28150011083346,-51.31277447917493zM-212.67437143562088,-77.60189187610678L-212.6743714356209,89.54664468932282L-125.17674068889517,-158.07614368974606zM-332.3903994966963,59.96778168883286L-212.6743714356209,89.54664468932282L-212.67437143562088,-77.60189187610678z" style="fill:rgb(238,238,238); fill-opacity: 0.4"></path><path d="M17.471270587711302,40.7787141553963L31.79417418923903,27.60550087756186L-87.92185387183632,-1.9733621229281146zM-102.24475747336402,38.56119060983401L17.471270587711302,68.14005361032397L17.471270587711302,40.7787141553963z" style="fill:rgb(153,221,255); fill-opacity: 0.4"></path><path d="M31.794172377632723,27.60550042995884L31.794172377632723,54.96683988488652L17.471268776104996,68.14005316272095z" style="fill:rgb(255,187,187); fill-opacity: 0.4"></path><path d="M17.471270587711302,68.14005361032397L31.79417418923903,54.96684033248952L31.79417418923903,27.60550087756186z" style="fill:rgb(153,221,255); fill-opacity: 0.4"></path><path d="M31.794174886147694,27.605501419166497L17.471271071192078,40.77871489329711M31.794174886147694,27.605501419166497L93.40839602172085,62.630680467904874M31.794174189239023,27.60550087756185L17.471270587711295,40.778714155396294" style="fill:none;stroke:rgb(0,0,0);stroke-width:1;stroke-linecap:round"></path><path d="M-14.56547204975816,109.85442890982976L-134.28150011083346,80.2755659093398L54.3173806181247,46.500758828374934zM-332.3903994966963,-107.18075487659674L-332.3903994966963,59.96778168883286L-212.67437143562088,-77.60189187610678z" style="fill:rgb(238,238,238); fill-opacity: 0.4"></path><path d="M-134.28150011083346,-51.312774479174934L-134.28150011083346,80.27556590933982M-134.28150011083346,80.27556590933982L-14.565472049758153,109.85442890982976" style="fill:none;stroke:rgb(0,0,0);stroke-width:1;stroke-linecap:round"></path><path d="M-14.56547204975816,109.85442890982976L54.3173806181247,46.500758828374934L54.31738061812473,-85.0875815601398z" style="fill:rgb(238,238,238); fill-opacity: 0.4"></path><path d="M31.794172377632723,54.96683988488652L31.794172377632723,27.60550042995884L93.40840015757367,62.630681031304505z" style="fill:rgb(255,187,187); fill-opacity: 0.4"></path><path d="M17.471270587711295,40.778714155396294L17.471270587711295,68.14005361032397M17.471271071192078,68.14005271736187L17.471271071192078,40.77871489329711M17.471271071192078,68.14005271736187L93.40839602172085,62.630680467904874" style="fill:none;stroke:rgb(0,0,0);stroke-width:1;stroke-linecap:round"></path><path d="M17.471268776104996,68.14005316272095L31.794172377632723,54.96683988488652L93.40840015757367,62.630681031304505zM31.794172377632723,27.60550042995884L17.471268776104996,68.14005316272095L17.471268776104996,40.77871370779329z" style="fill:rgb(255,187,187); fill-opacity: 0.4"></path><path d="M17.471270587711302,40.7787141553963L17.471270587711302,68.14005361032397L31.79417418923903,27.60550087756186z" style="fill:rgb(153,221,255); fill-opacity: 0.4"></path><path d="M54.31738061812472,-85.0875815601398L-14.56547204975814,-21.733911478684956M-332.39039949669626,-107.18075487659674L-212.67437143562088,-77.60189187610678" style="fill:none;stroke:rgb(0,0,0);stroke-width:1;stroke-linecap:round"></path><path d="M31.794172377632723,27.60550042995884L17.471268776104996,40.77871370779329L93.40840015757367,62.630681031304505z" style="fill:rgb(255,187,187); fill-opacity: 0.4"></path><path d="M264.8189364449634,96.84265662483182L121.15971331328159,61.34802362881403L121.15971331328161,-61.670027746233245z" style="fill:rgb(238,238,238); fill-opacity: 0.4"></path><path d="M17.471268776104996,40.77871370779329L17.471268776104996,68.14005316272095L93.40840015757367,62.630681031304505z" style="fill:rgb(255,187,187); fill-opacity: 0.4"></path><path d="M17.471271071192078,40.77871489329711L93.40839602172085,62.630680467904874M235.26038449952458,118.73243724617377L91.60116136784276,83.237804250156M91.60116136784278,42.195795067764486L91.60116136784276,83.237804250156M91.60116136784276,83.237804250156L70.11680596555118,102.99762416690766" style="fill:none;stroke:rgb(0,0,0);stroke-width:1;stroke-linecap:round"></path><path d="M-14.565472049758133,-21.73391147868496L54.31738061812473,-85.0875815601398L-65.3986474429506,-114.66644456062976zM56.763169642782955,120.57549787058545L121.15971331328159,61.34802362881403L264.8189364449634,96.84265662483182z" style="fill:rgb(238,238,238); fill-opacity: 0.4"></path><path d="M264.8189364449634,-26.175394750215446L264.8189364449634,96.84265662483182M264.8189364449634,96.84265662483182L200.42239277446475,156.07013086660325M264.8189364449634,-26.175394750215446L121.15971331328159,-61.670027746233245M121.15971331328159,-61.670027746233245L56.763169642782955,-2.442553504461821M235.2603844995246,77.69042806378228L91.60116136784278,42.195795067764486M91.60116136784278,42.195795067764486L70.1168059655512,61.95561498451616" style="fill:none;stroke:rgb(0,0,0);stroke-width:1;stroke-linecap:round"></path><path d="M-134.28150011083346,-51.31277447917493L-14.565472049758133,-21.73391147868496L-65.3986474429506,-114.66644456062976z" style="fill:rgb(238,238,238); fill-opacity: 0.4"></path><path d="M-14.56547204975814,-21.733911478684956L-14.565472049758153,109.85442890982976" style="fill:none;stroke:rgb(0,0,0);stroke-width:1;stroke-linecap:round"></path><path d="M91.60116136784279,42.19579506776448L91.60116136784279,83.23780425015599L70.11680596555122,61.955614984516146z" style="fill:rgb(153,221,255); fill-opacity: 0.4"></path><path d="M121.15971331328161,-61.670027746233245L121.15971331328159,61.34802362881403L56.763169642782984,-2.442553504461818z" style="fill:rgb(238,238,238); fill-opacity: 0.4"></path><path d="M235.26038449952463,118.73243724617377L91.60116136784279,83.23780425015599L91.60116136784279,42.19579506776448zM91.60116136784279,83.23780425015599L70.11680596555122,102.99762416690764L70.11680596555122,61.955614984516146z" style="fill:rgb(153,221,255); fill-opacity: 0.4"></path><path d="M-134.28150011083346,80.2755659093398L-14.56547204975816,109.85442890982976L-14.565472049758133,-21.73391147868496z" style="fill:rgb(238,238,238); fill-opacity: 0.4"></path><path d="M70.11680596555122,102.99762416690764L91.60116136784279,83.23780425015599L235.26038449952463,118.73243724617377z" style="fill:rgb(153,221,255); fill-opacity: 0.4"></path><path d="M-14.565472049758133,-21.73391147868496L-14.56547204975816,109.85442890982976L54.31738061812473,-85.0875815601398zM264.8189364449634,-26.175394750215442L264.8189364449634,96.84265662483182L121.15971331328161,-61.670027746233245z" style="fill:rgb(238,238,238); fill-opacity: 0.4"></path><path d="M70.1168059655512,61.95561498451616L70.11680596555118,102.99762416690766M70.11680596555118,102.99762416690766L213.776029097233,138.49225716292545" style="fill:none;stroke:rgb(0,0,0);stroke-width:1;stroke-linecap:round"></path><path d="M-134.28150011083346,-51.31277447917493L-134.28150011083346,80.2755659093398L-14.565472049758133,-21.73391147868496zM121.15971331328159,61.34802362881403L56.763169642782955,120.57549787058545L56.763169642782984,-2.442553504461818z" style="fill:rgb(238,238,238); fill-opacity: 0.4"></path><path d="M-134.28150011083346,-51.312774479174934L-14.56547204975814,-21.733911478684956M56.763169642782955,-2.442553504461821L56.763169642782955,120.57549787058545M56.763169642782955,120.57549787058545L200.42239277446475,156.07013086660325" style="fill:none;stroke:rgb(0,0,0);stroke-width:1;stroke-linecap:round"></path><path d="M235.26038449952463,77.69042806378228L235.26038449952463,118.73243724617377L91.60116136784279,42.19579506776448z" style="fill:rgb(153,221,255); fill-opacity: 0.4"></path><path d="M70.1168059655512,61.95561498451616L213.776029097233,97.45024798053394" style="fill:none;stroke:rgb(0,0,0);stroke-width:1;stroke-linecap:round"></path><path d="M200.42239277446478,156.07013086660325L56.763169642782955,120.57549787058545L264.8189364449634,96.84265662483182z" style="fill:rgb(238,238,238); fill-opacity: 0.4"></path><path d="M235.2603844995246,77.69042806378228L235.26038449952458,118.73243724617377M235.26038449952458,118.73243724617377L213.776029097233,138.49225716292545M235.26039043512023,77.69043010072485L235.26039043512023,118.73244091397927M235.26039043512023,118.73244091397927L213.77603567311235,138.49226024184244M235.26039043512023,118.73244091397927L296.26788597863754,110.9743868067187" style="fill:none;stroke:rgb(0,0,0);stroke-width:1;stroke-linecap:round"></path><path d="M213.77602909723302,138.49225716292543L70.11680596555122,102.99762416690764L235.26038449952463,118.73243724617377zM70.11680596555122,61.955614984516146L213.77602909723302,97.45024798053394L91.60116136784279,42.19579506776448z" style="fill:rgb(153,221,255); fill-opacity: 0.4"></path><path d="M200.42239277446478,156.07013086660325L264.8189364449634,96.84265662483182L264.8189364449634,-26.175394750215442z" style="fill:rgb(238,238,238); fill-opacity: 0.4"></path><path d="M466.9764653154204,138.91904046911412L323.31724218373853,103.4244074730963M323.31724218373853,20.856198954627935L323.31724218373853,103.4244074730963M323.31724218373853,103.4244074730963L280.0950712403538,143.17716236195108" style="fill:none;stroke:rgb(0,0,0);stroke-width:1;stroke-linecap:round"></path><path d="M70.11680596555122,61.955614984516146L70.11680596555122,102.99762416690764L213.77602909723302,97.45024798053394zM213.77602909723302,97.45024798053394L235.26038449952463,77.69042806378228L91.60116136784279,42.19579506776448z" style="fill:rgb(153,221,255); fill-opacity: 0.4"></path><path d="M264.8189364449634,-26.175394750215446L200.42239277446475,33.05207949155598" style="fill:none;stroke:rgb(0,0,0);stroke-width:1;stroke-linecap:round"></path><path d="M213.77602909723302,138.49225716292543L235.26038449952463,118.73243724617377L235.26038449952463,77.69042806378228z" style="fill:rgb(153,221,255); fill-opacity: 0.4"></path><path d="M235.26038759640136,77.69042882894375L235.26038759640136,118.73243801133526L213.77603219410977,138.49225792808693z" style="fill:rgb(255,187,187); fill-opacity: 0.4"></path><path d="M70.11680596555122,102.99762416690764L213.77602909723302,138.49225716292543L213.77602909723302,97.45024798053394z" style="fill:rgb(153,221,255); fill-opacity: 0.4"></path><path d="M235.2603844995246,77.69042806378228L213.776029097233,97.45024798053394M235.26039043512023,77.69043010072485L213.77603567311235,97.45024942858801M235.26039043512023,77.69043010072485L296.26788597863754,110.9743868067187" style="fill:none;stroke:rgb(0,0,0);stroke-width:1;stroke-linecap:round"></path><path d="M200.42239277446478,33.05207949155598L264.8189364449634,-26.175394750215442L121.15971331328161,-61.670027746233245z" style="fill:rgb(238,238,238); fill-opacity: 0.4"></path><path d="M235.26038759640136,118.73243801133526L235.26038759640136,77.69042882894375L296.26788325641326,110.97438673289847zM213.77603219410977,138.49225792808693L235.26038759640136,118.73243801133526L296.26788325641326,110.97438673289847z" style="fill:rgb(255,187,187); fill-opacity: 0.4"></path><path d="M213.776029097233,97.45024798053394L213.776029097233,138.49225716292545M213.77603567311235,138.49226024184244L213.77603567311235,97.45024942858801M213.77603567311235,138.49226024184244L296.26788597863754,110.9743868067187" style="fill:none;stroke:rgb(0,0,0);stroke-width:1;stroke-linecap:round"></path><path d="M213.77602909723302,97.45024798053394L213.77602909723302,138.49225716292543L235.26038449952463,77.69042806378228z" style="fill:rgb(153,221,255); fill-opacity: 0.4"></path><path d="M235.26038759640136,77.69042882894375L213.77603219410977,138.49225792808693L213.77603219410977,97.4502487456954z" style="fill:rgb(255,187,187); fill-opacity: 0.4"></path><path d="M56.763169642782984,-2.442553504461818L200.42239277446478,33.05207949155598L121.15971331328161,-61.670027746233245zM466.9764653154204,138.91904046911412L323.31724218373853,103.42440747309631L323.31724218373853,20.85619895462794z" style="fill:rgb(238,238,238); fill-opacity: 0.4"></path><path d="M235.26038759640136,77.69042882894375L213.77603219410977,97.4502487456954L296.26788325641326,110.97438673289847z" style="fill:rgb(255,187,187); fill-opacity: 0.4"></path><path d="M466.9764653154204,56.35083195064573L323.31724218373853,20.856198954627935M323.31724218373853,20.856198954627935L280.0950712403538,60.6089538434827" style="fill:none;stroke:rgb(0,0,0);stroke-width:1;stroke-linecap:round"></path><path d="M213.77603219410977,97.4502487456954L213.77603219410977,138.49225792808693L296.26788325641326,110.97438673289847z" style="fill:rgb(255,187,187); fill-opacity: 0.4"></path><path d="M280.0950712403538,143.17716236195105L323.31724218373853,103.42440747309631L466.9764653154204,138.91904046911412z" style="fill:rgb(238,238,238); fill-opacity: 0.4"></path><path d="M200.42239277446475,33.05207949155598L200.42239277446475,156.07013086660325" style="fill:none;stroke:rgb(0,0,0);stroke-width:1;stroke-linecap:round"></path><path d="M56.763169642782955,120.57549787058545L200.42239277446478,156.07013086660325L200.42239277446478,33.05207949155598zM56.763169642782984,-2.442553504461818L56.763169642782955,120.57549787058545L200.42239277446478,33.05207949155598z" style="fill:rgb(238,238,238); fill-opacity: 0.4"></path><path d="M56.763169642782955,-2.442553504461821L200.42239277446475,33.05207949155598M213.77603567311235,97.45024942858801L296.26788597863754,110.9743868067187" style="fill:none;stroke:rgb(0,0,0);stroke-width:1;stroke-linecap:round"></path><path d="M323.31724218373853,20.85619895462794L323.31724218373853,103.42440747309631L280.0950712403538,60.6089538434827zM200.42239277446478,33.05207949155598L200.42239277446478,156.07013086660325L264.8189364449634,-26.175394750215442zM323.31724218373853,103.42440747309631L280.0950712403538,143.17716236195105L280.0950712403538,60.6089538434827z" style="fill:rgb(238,238,238); fill-opacity: 0.4"></path><path d="M466.9764653154204,56.35083195064573L466.9764653154204,138.91904046911412M466.9764653154204,138.91904046911412L423.7542943720356,178.67179535796888M280.0950712403538,60.6089538434827L280.0950712403538,143.17716236195108M280.0950712403538,143.17716236195108L423.7542943720356,178.67179535796888" style="fill:none;stroke:rgb(0,0,0);stroke-width:1;stroke-linecap:round"></path><path d="M466.9764653154204,56.35083195064573L466.9764653154204,138.91904046911412L323.31724218373853,20.85619895462794z" style="fill:rgb(238,238,238); fill-opacity: 0.4"></path><path d="M577.6304664040007,265.496675602178L541.7156606210802,256.62301735317357M541.7156606210804,4.291314048029559L541.7156606210802,256.62301735317357M541.7156606210802,256.62301735317357L523.1008859570837,273.74359594461924" style="fill:none;stroke:rgb(0,0,0);stroke-width:1;stroke-linecap:round"></path><path d="M423.7542943720357,178.67179535796885L280.0950712403538,143.17716236195105L466.9764653154204,138.91904046911412zM523.1008859570837,273.74359594461924L541.7156606210802,256.62301735317357L577.6304664040006,265.496675602178z" style="fill:rgb(238,238,238); fill-opacity: 0.4"></path><path d="M577.6304664040007,13.164972297034032L577.6304664040007,265.496675602178M577.6304664040007,265.496675602178L559.0156917400041,282.6172541936237" style="fill:none;stroke:rgb(0,0,0);stroke-width:1;stroke-linecap:round"></path><path d="M423.7542943720357,178.67179535796885L466.9764653154204,138.91904046911412L466.9764653154204,56.35083195064573z" style="fill:rgb(238,238,238); fill-opacity: 0.4"></path><path d="M466.9764653154204,56.35083195064573L423.7542943720356,96.1035868395005M523.1008859570837,21.411892639475212L523.1008859570837,273.74359594461924M523.1008859570837,273.74359594461924L559.0156917400041,282.6172541936237" style="fill:none;stroke:rgb(0,0,0);stroke-width:1;stroke-linecap:round"></path><path d="M559.0156917400041,282.6172541936237L523.1008859570837,273.74359594461924L577.6304664040006,265.496675602178zM423.7542943720357,96.1035868395005L466.9764653154204,56.35083195064573L323.31724218373853,20.85619895462794zM280.0950712403538,60.6089538434827L423.7542943720357,96.1035868395005L323.31724218373853,20.85619895462794z" style="fill:rgb(238,238,238); fill-opacity: 0.4"></path><path d="M280.0950712403538,60.6089538434827L423.7542943720356,96.1035868395005" style="fill:none;stroke:rgb(0,0,0);stroke-width:1;stroke-linecap:round"></path><path d="M280.0950712403538,60.6089538434827L280.0950712403538,143.17716236195105L423.7542943720357,96.1035868395005z" style="fill:rgb(238,238,238); fill-opacity: 0.4"></path><path d="M559.0156917400042,30.285550888479673L559.0156917400041,282.6172541936237" style="fill:none;stroke:rgb(0,0,0);stroke-width:1;stroke-linecap:round"></path><path d="M577.6304664040006,265.496675602178L541.7156606210802,256.62301735317357L541.7156606210802,4.2913140480295615zM280.0950712403538,143.17716236195105L423.7542943720357,178.67179535796885L423.7542943720357,96.1035868395005z" style="fill:rgb(238,238,238); fill-opacity: 0.4"></path><path d="M466.7770609017132,122.80160928875002L505.9255029165744,132.47421889495453M423.7542943720356,96.1035868395005L423.7542943720356,178.67179535796888" style="fill:none;stroke:rgb(0,0,0);stroke-width:1;stroke-linecap:round"></path><path d="M423.7542943720357,96.1035868395005L423.7542943720357,178.67179535796885L466.9764653154204,56.35083195064573zM541.7156606210802,256.62301735317357L523.1008859570837,273.74359594461924L523.1008859570837,21.411892639475216z" style="fill:rgb(238,238,238); fill-opacity: 0.4"></path><path d="M682.6307596439381,248.24757168352852L646.7159538610176,239.3739134345241M646.7159538610177,73.42635736939468L646.7159538610176,239.3739134345241M646.7159538610176,239.3739134345241L628.1011791970211,256.49449202596975" style="fill:none;stroke:rgb(0,0,0);stroke-width:1;stroke-linecap:round"></path><path d="M559.0156917400041,282.6172541936237L577.6304664040006,265.496675602178L577.6304664040006,13.16497229703401z" style="fill:rgb(238,238,238); fill-opacity: 0.4"></path><path d="M501.668661934637,139.0315906905381L505.9255029165744,141.02463747461942L528.9539982194339,138.1639892515454zM508.5563752253372,123.13709101586464L503.29463060781154,127.97647875375111L528.9539982194339,138.1639892515454zM503.29463060781154,127.97647875375111L501.668661934637,139.0315906905381L528.9539982194339,138.1639892515454z" style="fill:rgb(0,0,0)"></path><path d="M628.1011791970211,256.49449202596975L646.7159538610176,239.3739134345241L682.6307596439381,248.24757168352852z" style="fill:rgb(238,238,238); fill-opacity: 0.4"></path><path d="M682.6307596439381,82.30001561839913L682.6307596439381,248.24757168352852M682.6307596439381,248.24757168352852L664.0159849799415,265.36815027497425" style="fill:none;stroke:rgb(0,0,0);stroke-width:1;stroke-linecap:round"></path><path d="M523.1008859570837,273.74359594461924L559.0156917400041,282.6172541936237L559.0156917400041,30.28555088847966zM541.7156606210802,4.2913140480295615L541.7156606210802,256.62301735317357L523.1008859570837,21.411892639475216zM577.6304664040006,13.16497229703401L577.6304664040006,265.496675602178L541.7156606210802,4.2913140480295615z" style="fill:rgb(238,238,238); fill-opacity: 0.4"></path><path d="M571.7773541416504,148.74457899010784L610.9257961565116,158.41718859631234M628.1011791970211,90.54693596084034L628.1011791970211,256.49449202596975M628.1011791970211,256.49449202596975L664.0159849799415,265.36815027497425" style="fill:none;stroke:rgb(0,0,0);stroke-width:1;stroke-linecap:round"></path><path d="M664.0159849799417,265.36815027497425L628.1011791970211,256.49449202596975L682.6307596439381,248.24757168352852zM682.6307596439381,248.24757168352852L646.7159538610176,239.3739134345241L646.7159538610176,73.42635736939467z" style="fill:rgb(238,238,238); fill-opacity: 0.4"></path><path d="M664.0159849799417,99.42059420984481L664.0159849799415,265.36815027497425" style="fill:none;stroke:rgb(0,0,0);stroke-width:1;stroke-linecap:round"></path><path d="M646.7159538610176,239.3739134345241L628.1011791970211,256.49449202596975L628.1011791970211,90.54693596084034z" style="fill:rgb(238,238,238); fill-opacity: 0.4"></path><path d="M606.6689551745743,164.97456039189592L610.9257961565116,166.96760717597724L633.9542914593712,164.1069589529032zM613.5566684652745,149.08006071722247L608.2949238477488,153.91944845510892L633.9542914593712,164.1069589529032zM608.2949238477488,153.91944845510892L606.6689551745743,164.97456039189592L633.9542914593712,164.1069589529032z" style="fill:rgb(0,0,0)"></path><path d="M664.0159849799417,265.36815027497425L682.6307596439381,248.24757168352852L682.6307596439381,82.30001561839912zM523.1008859570837,21.411892639475216L523.1008859570837,273.74359594461924L559.0156917400041,30.28555088847966zM559.0156917400041,30.28555088847966L559.0156917400041,282.6172541936237L577.6304664040006,13.16497229703401z" style="fill:rgb(238,238,238); fill-opacity: 0.4"></path><path d="M577.6304664040007,13.164972297034032L541.7156606210804,4.291314048029559M541.7156606210804,4.291314048029559L523.1008859570837,21.411892639475212" style="fill:none;stroke:rgb(0,0,0);stroke-width:1;stroke-linecap:round"></path><path d="M646.7159538610176,73.42635736939467L646.7159538610176,239.3739134345241L628.1011791970211,90.54693596084034zM682.6307596439381,82.30001561839912L682.6307596439381,248.24757168352852L646.7159538610176,73.42635736939467z" style="fill:rgb(238,238,238); fill-opacity: 0.4"></path><path d="M787.6310528838754,230.59289498905693L751.716247100955,221.71923674005245M751.716247100955,142.966973466582L751.716247100955,221.71923674005245M751.716247100955,221.71923674005245L733.1014724369584,238.83981533149816" style="fill:none;stroke:rgb(0,0,0);stroke-width:1;stroke-linecap:round"></path><path d="M628.1011791970211,256.49449202596975L664.0159849799417,265.36815027497425L664.0159849799417,99.4205942098448z" style="fill:rgb(238,238,238); fill-opacity: 0.4"></path><path d="M676.7776473815879,174.68754869146568L715.9260893964492,184.36015829767018M577.6304664040007,13.164972297034032L559.0156917400042,30.285550888479673" style="fill:none;stroke:rgb(0,0,0);stroke-width:1;stroke-linecap:round"></path><path d="M559.0156917400041,30.28555088847966L577.6304664040006,13.16497229703401L541.7156606210802,4.2913140480295615zM733.1014724369584,238.83981533149816L751.7162471009549,221.71923674005242L787.6310528838754,230.59289498905693z" style="fill:rgb(238,238,238); fill-opacity: 0.4"></path><path d="M787.6310528838754,151.84063171558645L787.6310528838754,230.59289498905693M787.6310528838754,230.59289498905693L769.0162782198788,247.71347358050258M682.6307596439381,82.30001561839913L646.7159538610177,73.42635736939468M646.7159538610177,73.42635736939468L628.1011791970211,90.54693596084034" style="fill:none;stroke:rgb(0,0,0);stroke-width:1;stroke-linecap:round"></path><path d="M787.6310528838754,230.59289498905693L751.7162471009549,221.71923674005242L751.7162471009549,142.96697346658198zM523.1008859570837,21.411892639475216L559.0156917400041,30.28555088847966L541.7156606210802,4.2913140480295615zM628.1011791970211,90.54693596084034L628.1011791970211,256.49449202596975L664.0159849799417,99.4205942098448z" style="fill:rgb(238,238,238); fill-opacity: 0.4"></path><path d="M523.1008859570837,21.411892639475212L559.0156917400042,30.285550888479673" style="fill:none;stroke:rgb(0,0,0);stroke-width:1;stroke-linecap:round"></path><path d="M664.0159849799417,99.4205942098448L664.0159849799417,265.36815027497425L682.6307596439381,82.30001561839912z" style="fill:rgb(238,238,238); fill-opacity: 0.4"></path><path d="M711.6692484145119,190.9175300932538L715.9260893964492,192.91057687733507L738.9545846993086,190.04992865426104zM718.5569617052122,175.0230304185803L713.2952170876864,179.86241815646676L738.9545846993086,190.04992865426104z" style="fill:rgb(0,0,0)"></path><path d="M733.1014724369584,160.08755205802768L733.1014724369584,238.83981533149816M733.1014724369584,238.83981533149816L769.0162782198788,247.71347358050258" style="fill:none;stroke:rgb(0,0,0);stroke-width:1;stroke-linecap:round"></path><path d="M769.0162782198789,247.71347358050258L733.1014724369584,238.83981533149816L787.6310528838754,230.59289498905693z" style="fill:rgb(238,238,238); fill-opacity: 0.4"></path><path d="M713.2952170876864,179.86241815646676L711.6692484145119,190.9175300932538L738.9545846993086,190.04992865426104z" style="fill:rgb(0,0,0)"></path><path d="M682.6307596439381,82.30001561839913L664.0159849799417,99.42059420984481" style="fill:none;stroke:rgb(0,0,0);stroke-width:1;stroke-linecap:round"></path><path d="M751.7162471009549,221.71923674005242L733.1014724369584,238.83981533149816L733.1014724369584,160.08755205802765zM751.7162471009549,142.96697346658198L751.7162471009549,221.71923674005242L733.1014724369584,160.08755205802765zM787.6310528838754,151.84063171558643L787.6310528838754,230.59289498905693L751.7162471009549,142.96697346658198zM664.0159849799417,99.4205942098448L682.6307596439381,82.30001561839912L646.7159538610176,73.42635736939467zM769.0162782198789,247.71347358050258L787.6310528838754,230.59289498905693L787.6310528838754,151.84063171558643z" style="fill:rgb(238,238,238); fill-opacity: 0.4"></path><path d="M787.6310528838754,151.84063171558645L751.716247100955,142.966973466582M751.716247100955,142.966973466582L733.1014724369584,160.08755205802768" style="fill:none;stroke:rgb(0,0,0);stroke-width:1;stroke-linecap:round"></path><path d="M628.1011791970211,90.54693596084034L664.0159849799417,99.4205942098448L646.7159538610176,73.42635736939467z" style="fill:rgb(238,238,238); fill-opacity: 0.4"></path><path d="M769.0162782198788,168.96121030703213L769.0162782198788,247.71347358050258M628.1011791970211,90.54693596084034L664.0159849799417,99.42059420984481" style="fill:none;stroke:rgb(0,0,0);stroke-width:1;stroke-linecap:round"></path><path d="M733.1014724369584,238.83981533149816L769.0162782198789,247.71347358050258L769.0162782198789,168.9612103070321z" style="fill:rgb(238,238,238); fill-opacity: 0.4"></path><path d="M787.6310528838754,151.84063171558645L769.0162782198788,168.96121030703213" style="fill:none;stroke:rgb(0,0,0);stroke-width:1;stroke-linecap:round"></path><path d="M769.0162782198789,168.9612103070321L787.6310528838754,151.84063171558643L751.7162471009549,142.96697346658198zM733.1014724369584,160.08755205802765L733.1014724369584,238.83981533149816L769.0162782198789,168.9612103070321zM769.0162782198789,168.9612103070321L769.0162782198789,247.71347358050258L787.6310528838754,151.84063171558643zM733.1014724369584,160.08755205802765L769.0162782198789,168.9612103070321L751.7162471009549,142.96697346658198z" style="fill:rgb(238,238,238); fill-opacity: 0.4"></path><path d="M733.1014724369584,160.08755205802768L769.0162782198788,168.96121030703213" style="fill:none;stroke:rgb(0,0,0);stroke-width:1;stroke-linecap:round"></path></svg>